<svg width="103" height="17" viewBox="0 0 103 17" fill="none" xmlns="http://www.w3.org/2000/svg">
<mask id="path-1-inside-1_1_18" fill="white">
<path d="M1.91016 7.60156C1.95312 7.17578 2.06836 6.82031 2.25586 6.53516C2.44336 6.25 2.67578 6.02344 2.95312 5.85547C3.23047 5.6836 3.53906 5.5625 3.87891 5.49219C4.21875 5.42188 4.5625 5.38672 4.91016 5.38672C5.19531 5.38672 5.47461 5.39844 5.74805 5.42188C6.02148 5.44531 6.27344 5.47266 6.50391 5.50391C6.73438 5.53516 6.93359 5.56641 7.10156 5.59766C7.26953 5.62891 7.39258 5.65235 7.4707 5.66797C7.51758 5.67969 7.54102 5.70117 7.54102 5.73242C7.54102 5.74024 7.53711 5.76367 7.5293 5.80274L7.44141 6.22461C7.43359 6.25196 7.42188 6.26953 7.40625 6.27735C7.39453 6.28125 7.38281 6.28321 7.37109 6.28321C7.19922 6.28321 7.05078 6.3125 6.92578 6.3711C6.80078 6.42969 6.69727 6.51172 6.61523 6.61719C6.5332 6.72266 6.4707 6.84766 6.42773 6.99219C6.38477 7.13672 6.35547 7.29297 6.33984 7.46094L5.98828 11.7207C5.95703 12.0645 5.86914 12.3887 5.72461 12.6934C5.58008 12.998 5.37891 13.2637 5.12109 13.4902C4.86328 13.7168 4.54688 13.8965 4.17188 14.0293C3.79688 14.1621 3.36719 14.2285 2.88281 14.2285C2.55859 14.2285 2.24609 14.2129 1.94531 14.1816C1.64453 14.1504 1.37109 14.1133 1.125 14.0703C0.878906 14.0273 0.666016 13.9863 0.486328 13.9473C0.310547 13.9043 0.183594 13.873 0.105469 13.8535C0.0585938 13.8418 0.0351562 13.8203 0.0351562 13.7891C0.0351562 13.7852 0.0390625 13.7637 0.046875 13.7246L0.146484 13.2793C0.154297 13.252 0.164062 13.2363 0.175781 13.2324C0.191406 13.2246 0.205078 13.2207 0.216797 13.2207C0.388672 13.2207 0.546875 13.1953 0.691406 13.1445C0.839844 13.0938 0.96875 13.0098 1.07812 12.8926C1.1875 12.7754 1.27734 12.623 1.34766 12.4355C1.42188 12.248 1.47266 12.0176 1.5 11.7441L1.91016 7.60156Z"/>
<path d="M7.41211 9.92188C7.33008 9.92188 7.28906 9.87891 7.28906 9.79297V9.32422C7.28906 9.24219 7.33008 9.20117 7.41211 9.20117H8.02148V7.8711C8.02148 7.8125 8.0293 7.75391 8.04492 7.69531C8.06445 7.63672 8.11328 7.5918 8.19141 7.56055L11.4258 6.36524C11.5742 6.31055 11.6973 6.26953 11.7949 6.24219C11.8926 6.21485 11.9785 6.20117 12.0527 6.20117C12.0801 6.20117 12.1094 6.20703 12.1406 6.21875C12.1758 6.22656 12.207 6.24219 12.2344 6.26563C12.2656 6.28906 12.291 6.32227 12.3105 6.36524C12.3301 6.4043 12.3398 6.45313 12.3398 6.51172V9.20117H13.3945C13.4766 9.20117 13.5176 9.24219 13.5176 9.32422V9.79297C13.5176 9.87891 13.4766 9.92188 13.3945 9.92188H12.3398V12.2832C12.3398 12.5605 12.3848 12.7559 12.4746 12.8691C12.5684 12.9824 12.7109 13.0391 12.9023 13.0391C12.9453 13.0391 12.9902 13.0352 13.0371 13.0273C13.084 13.0156 13.127 13.0059 13.166 12.998C13.209 12.9863 13.248 12.9766 13.2832 12.9688C13.3184 12.957 13.3477 12.9512 13.3711 12.9512C13.4141 12.9512 13.4355 12.9766 13.4355 13.0273V13.4785C13.4355 13.5566 13.4199 13.6094 13.3887 13.6367C13.3574 13.6641 13.3301 13.6816 13.3066 13.6895C13.1582 13.752 12.9824 13.8145 12.7793 13.877C12.5801 13.9395 12.3633 13.9941 12.1289 14.041C11.8984 14.0918 11.6543 14.1309 11.3965 14.1582C11.1387 14.1895 10.8809 14.2051 10.623 14.2051C10.252 14.2051 9.90625 14.1855 9.58594 14.1465C9.26953 14.1113 8.99414 14.0273 8.75977 13.8945C8.5293 13.7617 8.34766 13.5645 8.21484 13.3027C8.08594 13.041 8.02148 12.6855 8.02148 12.2363V9.92188H7.41211Z"/>
<path d="M17.8008 14.2051C17.5078 14.2051 17.2148 14.1816 16.9219 14.1348C16.6289 14.0879 16.3477 14.0137 16.0781 13.9121C15.8125 13.8105 15.5645 13.6777 15.334 13.5137C15.1035 13.3496 14.9023 13.1484 14.7305 12.9102C14.5625 12.6719 14.4297 12.3965 14.332 12.084C14.2344 11.7676 14.1855 11.4063 14.1855 11C14.1855 10.6016 14.2344 10.2461 14.332 9.9336C14.4297 9.61719 14.5625 9.33985 14.7305 9.10156C14.9023 8.86328 15.1035 8.66211 15.334 8.49805C15.5645 8.33008 15.8125 8.19531 16.0781 8.09375C16.3477 7.98828 16.6289 7.91211 16.9219 7.86524C17.2148 7.81836 17.5078 7.79492 17.8008 7.79492C18.0703 7.79492 18.3457 7.8125 18.627 7.84766C18.9121 7.87891 19.1875 7.93946 19.4531 8.0293C19.7227 8.11524 19.9746 8.23438 20.209 8.38672C20.4473 8.53516 20.6543 8.72656 20.8301 8.96094C21.0098 9.19531 21.1504 9.47656 21.252 9.80469C21.3574 10.1289 21.4102 10.5117 21.4102 10.9531C21.4102 11.4063 21.3594 11.8027 21.2578 12.1426C21.1562 12.4785 21.0156 12.7676 20.8359 13.0098C20.6602 13.248 20.4551 13.4453 20.2207 13.6016C19.9863 13.7578 19.7344 13.8809 19.4648 13.9707C19.1992 14.0566 18.9238 14.1172 18.6387 14.1523C18.3535 14.1875 18.0742 14.2051 17.8008 14.2051ZM19.5996 12.7988C19.7207 12.7988 19.8398 12.7734 19.957 12.7227C20.0781 12.668 20.1836 12.5723 20.2734 12.4355C20.3672 12.2988 20.4414 12.1113 20.4961 11.873C20.5547 11.6309 20.584 11.3242 20.584 10.9531C20.584 10.6016 20.5547 10.3125 20.4961 10.0859C20.4414 9.85938 20.3672 9.68164 20.2734 9.55274C20.1797 9.41992 20.0742 9.32813 19.957 9.27735C19.8398 9.22656 19.7207 9.20117 19.5996 9.20117C19.5059 9.20117 19.4004 9.22071 19.2832 9.25977C19.1699 9.29883 19.0625 9.38281 18.9609 9.51172C18.8633 9.63672 18.7812 9.81836 18.7148 10.0566C18.6484 10.291 18.6152 10.6055 18.6152 11C18.6152 11.3945 18.6426 11.7109 18.6973 11.9492C18.752 12.1875 18.8242 12.3691 18.9141 12.4941C19.0039 12.6191 19.1074 12.7012 19.2246 12.7402C19.3457 12.7793 19.4707 12.7988 19.5996 12.7988Z"/>
<path d="M26.2969 11.0352C26.2969 11.4297 26.3379 11.7578 26.4199 12.0195C26.5059 12.2813 26.6133 12.4902 26.7422 12.6465C26.8711 12.7988 27.0098 12.9063 27.1582 12.9688C27.3066 13.0313 27.4453 13.0625 27.5742 13.0625C27.6719 13.0625 27.7617 13.0508 27.8438 13.0273C27.9258 13 27.998 12.9707 28.0605 12.9395C28.123 12.9043 28.1758 12.875 28.2188 12.8516C28.2617 12.8242 28.2949 12.8105 28.3184 12.8105C28.3535 12.8105 28.377 12.8164 28.3887 12.8281C28.4043 12.8398 28.4219 12.8613 28.4414 12.8926L28.6465 13.209C28.666 13.2402 28.6758 13.2676 28.6758 13.291C28.6758 13.3184 28.668 13.3398 28.6523 13.3555C28.6367 13.3711 28.6211 13.3848 28.6055 13.3965C28.4766 13.4863 28.3184 13.582 28.1309 13.6836C27.9434 13.7813 27.7246 13.8711 27.4746 13.9531C27.2285 14.0352 26.9531 14.1035 26.6484 14.1582C26.3438 14.2129 26.0117 14.2402 25.6523 14.2402C25.3594 14.2402 25.0664 14.2168 24.7734 14.1699C24.4805 14.123 24.1992 14.0469 23.9297 13.9414C23.6641 13.8359 23.416 13.7012 23.1855 13.5371C22.9551 13.3691 22.7539 13.168 22.582 12.9336C22.4141 12.6953 22.2812 12.4199 22.1836 12.1074C22.0859 11.791 22.0371 11.4336 22.0371 11.0352C22.0371 10.6367 22.0859 10.2813 22.1836 9.96875C22.2812 9.65235 22.4141 9.37696 22.582 9.14258C22.7539 8.9043 22.9551 8.70313 23.1855 8.53906C23.416 8.3711 23.6641 8.23438 23.9297 8.12891C24.1992 8.02344 24.4805 7.94727 24.7734 7.90039C25.0664 7.85352 25.3594 7.83008 25.6523 7.83008C25.9727 7.83008 26.2812 7.85547 26.5781 7.90625C26.875 7.95313 27.1484 8.01758 27.3984 8.09961C27.6523 8.17774 27.8789 8.26563 28.0781 8.36328C28.2812 8.45703 28.4453 8.55078 28.5703 8.64453C28.5859 8.65625 28.6016 8.66992 28.6172 8.68555C28.6328 8.70117 28.6406 8.72266 28.6406 8.75C28.6406 8.77735 28.6309 8.80469 28.6113 8.83203L28.4062 9.14844C28.3867 9.17969 28.3691 9.20117 28.3535 9.21289C28.3418 9.22461 28.3184 9.23047 28.2832 9.23047C28.2598 9.23047 28.2285 9.21875 28.1895 9.19531C28.1504 9.17188 28.1016 9.14649 28.043 9.11914C27.9844 9.08789 27.916 9.06055 27.8379 9.03711C27.7598 9.00977 27.6719 8.9961 27.5742 8.9961C27.4453 8.9961 27.3066 9.0293 27.1582 9.09571C27.0098 9.15821 26.8711 9.26758 26.7422 9.42383C26.6133 9.58008 26.5059 9.78906 26.4199 10.0508C26.3379 10.3125 26.2969 10.6406 26.2969 11.0352Z"/>
<path d="M52.1055 10.291L50.7285 12.8281C50.6699 12.9375 50.5996 13.0293 50.5176 13.1035C50.4355 13.1738 50.3223 13.209 50.1777 13.209C50.0449 13.209 49.9336 13.1719 49.8438 13.0977C49.7578 13.0234 49.6855 12.9355 49.627 12.834L48.1738 10.3379C48.1973 10.8652 48.2188 11.3516 48.2383 11.7969C48.2461 11.9883 48.2539 12.1797 48.2617 12.3711C48.2695 12.5625 48.2773 12.7402 48.2852 12.9043C48.293 13.0684 48.2988 13.2148 48.3027 13.3438C48.3105 13.4688 48.3164 13.5605 48.3203 13.6191C48.3242 13.6777 48.3223 13.7305 48.3145 13.7773C48.3105 13.8242 48.2969 13.8652 48.2734 13.9004C48.25 13.9316 48.2168 13.957 48.1738 13.9766C48.1309 13.9922 48.0723 14 47.998 14H47.3535C47.2832 14 47.2168 13.9785 47.1543 13.9355C47.0957 13.8887 47.0664 13.7988 47.0664 13.666V6.21289C47.0664 6.13867 47.0762 6.06446 47.0957 5.99024C47.1191 5.91602 47.1562 5.84961 47.207 5.79102C47.2617 5.72852 47.332 5.67969 47.418 5.64453C47.5039 5.60547 47.6094 5.58594 47.7344 5.58594H49.6211C49.7734 5.58594 49.9043 5.61328 50.0137 5.66797C50.123 5.71875 50.2168 5.80469 50.2949 5.92578L51.8711 8.42774L52.9258 6.40625C52.9883 6.28516 53.0488 6.17578 53.1074 6.07813C53.166 5.97656 53.2344 5.89063 53.3125 5.82031C53.3945 5.7461 53.4941 5.68946 53.6113 5.65039C53.7324 5.60742 53.8867 5.58594 54.0742 5.58594H55.6328C55.7812 5.58594 55.9082 5.60547 56.0137 5.64453C56.123 5.6836 56.2109 5.73633 56.2773 5.80274C56.3477 5.86914 56.3984 5.94727 56.4297 6.03711C56.4609 6.12696 56.4766 6.22461 56.4766 6.33008V13.1855C56.4766 13.3066 56.4668 13.418 56.4473 13.5195C56.4277 13.6172 56.3867 13.7031 56.3242 13.7773C56.2656 13.8477 56.1797 13.9023 56.0664 13.9414C55.957 13.9805 55.8125 14 55.6328 14H52.9258C52.7656 14 52.6328 13.9824 52.5273 13.9473C52.4219 13.9121 52.3379 13.8613 52.2754 13.7949C52.2129 13.7285 52.168 13.6445 52.1406 13.543C52.1172 13.4414 52.1055 13.3223 52.1055 13.1855V10.291Z"/>
<path d="M60.0039 14C59.793 14 59.5801 13.9863 59.3652 13.959C59.1543 13.9316 58.9512 13.8887 58.7559 13.8301C58.5645 13.7676 58.3848 13.6875 58.2168 13.5898C58.0488 13.4922 57.9023 13.3711 57.7773 13.2266C57.6562 13.082 57.5605 12.9121 57.4902 12.7168C57.4199 12.5215 57.3848 12.2969 57.3848 12.043C57.3848 11.7031 57.4492 11.4121 57.5781 11.1699C57.707 10.9277 57.8789 10.7266 58.0938 10.5664C58.3125 10.4063 58.5625 10.2832 58.8438 10.1973C59.125 10.1113 59.416 10.0566 59.7168 10.0332V9.62891C59.7168 9.47656 59.6973 9.35547 59.6582 9.26563C59.6191 9.17578 59.5684 9.10938 59.5059 9.06641C59.4473 9.01953 59.3809 8.99024 59.3066 8.97852C59.2363 8.96289 59.168 8.95508 59.1016 8.95508C59.0234 8.95508 58.9395 8.9668 58.8496 8.99024C58.7637 9.01367 58.6797 9.04297 58.5977 9.07813C58.5156 9.10938 58.4375 9.14453 58.3633 9.1836C58.2891 9.22266 58.2266 9.25781 58.1758 9.28906C58.1523 9.30469 58.1309 9.31836 58.1113 9.33008C58.0918 9.3418 58.0723 9.34766 58.0527 9.34766C58.0176 9.34766 57.9844 9.32227 57.9531 9.27149L57.7539 8.95508C57.7344 8.92774 57.7246 8.89844 57.7246 8.86719C57.7246 8.83594 57.7363 8.8086 57.7598 8.78516C57.7871 8.76172 57.8125 8.74219 57.8359 8.72656C57.9648 8.63672 58.1289 8.54492 58.3281 8.45117C58.5273 8.35742 58.75 8.27344 58.9961 8.19922C59.2461 8.125 59.5156 8.06446 59.8047 8.01758C60.0938 7.97071 60.3926 7.94727 60.7012 7.94727C60.9941 7.94727 61.2793 7.95703 61.5566 7.97656C61.8379 7.9961 62.1016 8.03906 62.3477 8.10547C62.5977 8.16797 62.8242 8.25977 63.0273 8.38086C63.2344 8.49805 63.4121 8.6543 63.5605 8.84961C63.7129 9.04492 63.8301 9.28516 63.9121 9.57031C63.9941 9.85547 64.0352 10.1973 64.0352 10.5957V13.209C64.0352 13.3379 64.0234 13.4531 64 13.5547C63.9766 13.6523 63.9316 13.7344 63.8652 13.8008C63.7988 13.8672 63.707 13.918 63.5898 13.9531C63.4727 13.9844 63.3203 14 63.1328 14H60.0039ZM59.7168 10.7773C59.4355 10.7773 59.1992 10.8125 59.0078 10.8828C58.8164 10.9531 58.6621 11.0469 58.5449 11.1641C58.4277 11.2813 58.3438 11.418 58.293 11.5742C58.2422 11.7266 58.2168 11.8848 58.2168 12.0488C58.2168 12.2129 58.2422 12.3691 58.293 12.5176C58.3438 12.6621 58.4277 12.7891 58.5449 12.8984C58.6621 13.0078 58.8164 13.0938 59.0078 13.1563C59.1992 13.2188 59.4355 13.25 59.7168 13.25V10.7773Z"/>
<path d="M65.1133 8.81446C65.1133 8.68164 65.125 8.56446 65.1484 8.46289C65.1719 8.35742 65.2168 8.27149 65.2832 8.20508C65.3496 8.13867 65.4414 8.08789 65.5586 8.05274C65.6758 8.01758 65.8281 8 66.0156 8H68.4121C68.5879 8 68.7383 8.01758 68.8633 8.05274C68.9922 8.08789 69.084 8.14844 69.1387 8.23438C69.1895 8.19922 69.25 8.16211 69.3203 8.12305C69.3945 8.08008 69.4746 8.04102 69.5605 8.00586C69.6465 7.97071 69.7383 7.94141 69.8359 7.91797C69.9336 7.89453 70.0352 7.88281 70.1406 7.88281C70.5156 7.88281 70.8066 8.01172 71.0137 8.26953C71.2246 8.52735 71.3301 8.90625 71.3301 9.40625V13.7246C71.3301 13.791 71.3203 13.8438 71.3008 13.8828C71.2852 13.918 71.2637 13.9453 71.2363 13.9648C71.2129 13.9805 71.1836 13.9902 71.1484 13.9941C71.1133 13.998 71.0781 14 71.043 14H70.668C70.5664 14 70.5 13.9707 70.4688 13.9121C70.4414 13.8535 70.4277 13.791 70.4277 13.7246V9.34766C70.4277 9.125 70.3867 8.95508 70.3047 8.83789C70.2266 8.72071 70.0996 8.66211 69.9238 8.66211C69.834 8.66211 69.7422 8.6875 69.6484 8.73828C69.5586 8.78516 69.4863 8.83594 69.4316 8.89063V13.1797C69.4316 13.3164 69.4199 13.4355 69.3965 13.5371C69.373 13.6387 69.3281 13.7246 69.2617 13.7949C69.1953 13.8613 69.1035 13.9121 68.9863 13.9473C68.8691 13.9824 68.7168 14 68.5293 14H66.0156C65.8281 14 65.6758 13.9824 65.5586 13.9473C65.4414 13.9121 65.3496 13.8613 65.2832 13.7949C65.2168 13.7285 65.1719 13.6445 65.1484 13.543C65.125 13.4414 65.1133 13.3223 65.1133 13.1855V8.81446Z"/>
<path d="M74.8633 14C74.6523 14 74.4395 13.9863 74.2246 13.959C74.0137 13.9316 73.8105 13.8887 73.6152 13.8301C73.4238 13.7676 73.2441 13.6875 73.0762 13.5898C72.9082 13.4922 72.7617 13.3711 72.6367 13.2266C72.5156 13.082 72.4199 12.9121 72.3496 12.7168C72.2793 12.5215 72.2441 12.2969 72.2441 12.043C72.2441 11.7031 72.3086 11.4121 72.4375 11.1699C72.5664 10.9277 72.7383 10.7266 72.9531 10.5664C73.1719 10.4063 73.4219 10.2832 73.7031 10.1973C73.9844 10.1113 74.2754 10.0566 74.5762 10.0332V9.62891C74.5762 9.47656 74.5566 9.35547 74.5176 9.26563C74.4785 9.17578 74.4277 9.10938 74.3652 9.06641C74.3066 9.01953 74.2402 8.99024 74.166 8.97852C74.0957 8.96289 74.0273 8.95508 73.9609 8.95508C73.8828 8.95508 73.7988 8.9668 73.709 8.99024C73.623 9.01367 73.5391 9.04297 73.457 9.07813C73.375 9.10938 73.2969 9.14453 73.2227 9.1836C73.1484 9.22266 73.0859 9.25781 73.0352 9.28906C73.0117 9.30469 72.9902 9.31836 72.9707 9.33008C72.9512 9.3418 72.9316 9.34766 72.9121 9.34766C72.877 9.34766 72.8438 9.32227 72.8125 9.27149L72.6133 8.95508C72.5938 8.92774 72.584 8.89844 72.584 8.86719C72.584 8.83594 72.5957 8.8086 72.6191 8.78516C72.6465 8.76172 72.6719 8.74219 72.6953 8.72656C72.8242 8.63672 72.9883 8.54492 73.1875 8.45117C73.3867 8.35742 73.6094 8.27344 73.8555 8.19922C74.1055 8.125 74.375 8.06446 74.6641 8.01758C74.9531 7.97071 75.252 7.94727 75.5605 7.94727C75.8535 7.94727 76.1387 7.95703 76.416 7.97656C76.6973 7.9961 76.9609 8.03906 77.207 8.10547C77.457 8.16797 77.6836 8.25977 77.8867 8.38086C78.0938 8.49805 78.2715 8.6543 78.4199 8.84961C78.5723 9.04492 78.6895 9.28516 78.7715 9.57031C78.8535 9.85547 78.8945 10.1973 78.8945 10.5957V13.209C78.8945 13.3379 78.8828 13.4531 78.8594 13.5547C78.8359 13.6523 78.791 13.7344 78.7246 13.8008C78.6582 13.8672 78.5664 13.918 78.4492 13.9531C78.332 13.9844 78.1797 14 77.9922 14H74.8633ZM74.5762 10.7773C74.2949 10.7773 74.0586 10.8125 73.8672 10.8828C73.6758 10.9531 73.5215 11.0469 73.4043 11.1641C73.2871 11.2813 73.2031 11.418 73.1523 11.5742C73.1016 11.7266 73.0762 11.8848 73.0762 12.0488C73.0762 12.2129 73.1016 12.3691 73.1523 12.5176C73.2031 12.6621 73.2871 12.7891 73.4043 12.8984C73.5215 13.0078 73.6758 13.0938 73.8672 13.1563C74.0586 13.2188 74.2949 13.25 74.5762 13.25V10.7773Z"/>
<path d="M83.3594 13.4141C83.0625 13.4141 82.7676 13.3945 82.4746 13.3555C82.1816 13.3125 81.9004 13.2461 81.6309 13.1563C81.627 13.1758 81.625 13.1953 81.625 13.2148C81.625 13.2305 81.625 13.248 81.625 13.2676C81.625 13.3848 81.6445 13.4941 81.6836 13.5957C81.7227 13.6934 81.7832 13.7793 81.8652 13.8535C81.9512 13.9277 82.0625 13.9863 82.1992 14.0293C82.3359 14.0723 82.502 14.0938 82.6973 14.0938C82.9121 14.0938 83.1113 14.0801 83.2949 14.0527C83.4785 14.0293 83.6582 14.0039 83.834 13.9766C84.0098 13.9453 84.1855 13.918 84.3613 13.8945C84.541 13.8672 84.7305 13.8535 84.9297 13.8535C85.1211 13.8535 85.3086 13.8887 85.4922 13.959C85.6758 14.0254 85.8379 14.123 85.9785 14.252C86.123 14.3848 86.2383 14.5469 86.3242 14.7383C86.4102 14.9297 86.4531 15.1484 86.4531 15.3945C86.4531 15.6133 86.4316 15.8047 86.3887 15.9688C86.3496 16.1328 86.3086 16.2891 86.2656 16.4375C86.2578 16.457 86.2422 16.4805 86.2188 16.5078C86.1992 16.5352 86.1602 16.5488 86.1016 16.5488H85.668C85.6133 16.5488 85.5781 16.5352 85.5625 16.5078C85.5469 16.4844 85.5352 16.4648 85.5273 16.4492C85.4531 16.2656 85.166 16.1738 84.666 16.1738C84.4512 16.1738 84.2383 16.1855 84.0273 16.209C83.8164 16.2363 83.6016 16.2637 83.3828 16.291C83.1641 16.3223 82.9355 16.3496 82.6973 16.373C82.4629 16.4004 82.2148 16.4141 81.9531 16.4141C81.5898 16.4141 81.2812 16.3535 81.0273 16.2324C80.7773 16.1113 80.5742 15.957 80.418 15.7695C80.2617 15.5859 80.1484 15.3828 80.0781 15.1602C80.0078 14.9375 79.9727 14.7266 79.9727 14.5273C79.9727 14.3125 79.9961 14.1172 80.043 13.9414C80.0938 13.7617 80.1582 13.5996 80.2363 13.4551C80.3145 13.3105 80.4043 13.1816 80.5059 13.0684C80.6074 12.9512 80.709 12.8457 80.8105 12.752C80.4902 12.5332 80.2324 12.248 80.0371 11.8965C79.8418 11.5449 79.7441 11.1133 79.7441 10.6016C79.7441 10.2539 79.793 9.94336 79.8906 9.66992C79.9883 9.39258 80.1211 9.15039 80.2891 8.94336C80.4609 8.73242 80.6621 8.55469 80.8926 8.41016C81.123 8.26563 81.3711 8.14844 81.6367 8.0586C81.9062 7.96485 82.1875 7.89844 82.4805 7.85938C82.7734 7.81641 83.0664 7.79492 83.3594 7.79492C83.6211 7.79492 83.8887 7.8086 84.1621 7.83594C84.4355 7.86328 84.7012 7.91406 84.959 7.98828C85.2207 8.0586 85.4668 8.1543 85.6973 8.27539C85.9316 8.39649 86.1387 8.55078 86.3184 8.73828L86.957 8.08789C87 8.04492 87.041 8.01367 87.0801 7.99414C87.123 7.97461 87.1621 7.96485 87.1973 7.96485C87.2598 7.96485 87.3164 7.99024 87.3672 8.04102L87.6543 8.34571C87.7012 8.40039 87.7246 8.45703 87.7246 8.51563C87.7246 8.60156 87.6758 8.67969 87.5781 8.75L86.7285 9.34766C86.8066 9.51563 86.8652 9.69922 86.9043 9.89844C86.9473 10.0977 86.9688 10.3164 86.9688 10.5547C86.9688 10.9531 86.918 11.3008 86.8164 11.5977C86.7148 11.8945 86.5742 12.1484 86.3945 12.3594C86.2188 12.5703 86.0137 12.7441 85.7793 12.8809C85.5449 13.0176 85.293 13.125 85.0234 13.2031C84.7578 13.2813 84.4824 13.3359 84.1973 13.3672C83.9121 13.3984 83.6328 13.4141 83.3594 13.4141ZM85.3164 9.95703C85.2969 9.9375 85.2871 9.90821 85.2871 9.86914C85.2871 9.82227 85.3047 9.78125 85.3398 9.7461L85.7148 9.35938C85.6367 9.30078 85.5508 9.25977 85.457 9.23633C85.3672 9.21289 85.2754 9.20117 85.1816 9.20117C85.0879 9.20117 84.9824 9.2168 84.8652 9.24805C84.752 9.27539 84.6426 9.33789 84.5371 9.43555C84.4355 9.53321 84.3496 9.67578 84.2793 9.86328C84.209 10.0469 84.1738 10.293 84.1738 10.6016C84.1738 10.9102 84.2012 11.1582 84.2559 11.3457C84.3145 11.5293 84.3906 11.6699 84.4844 11.7676C84.5781 11.8652 84.6855 11.9297 84.8066 11.9609C84.9277 11.9922 85.0527 12.0078 85.1816 12.0078C85.3027 12.0078 85.4219 11.9883 85.5391 11.9492C85.6562 11.9063 85.7578 11.832 85.8438 11.7266C85.9336 11.6172 86.0059 11.4707 86.0605 11.2871C86.1152 11.0996 86.1426 10.8594 86.1426 10.5664C86.1426 10.2734 86.1094 10.0313 86.043 9.83985L85.6504 10.1152C85.6191 10.1348 85.5879 10.1445 85.5566 10.1445C85.5059 10.1445 85.4648 10.125 85.4336 10.0859L85.3164 9.95703Z"/>
<path d="M93.3203 13.0273C93.4258 13.0273 93.5215 13.0137 93.6074 12.9863C93.6934 12.9551 93.7695 12.9219 93.8359 12.8867C93.9062 12.8516 93.9629 12.8203 94.0059 12.793C94.0527 12.7617 94.0879 12.7461 94.1113 12.7461C94.1465 12.7461 94.1699 12.752 94.1816 12.7637C94.1973 12.7754 94.2148 12.7969 94.2344 12.8281L94.4395 13.1445C94.459 13.1758 94.4688 13.2031 94.4688 13.2266C94.4688 13.2539 94.4609 13.2754 94.4453 13.291C94.4297 13.3066 94.4141 13.3203 94.3984 13.332C94.2695 13.4219 94.1113 13.5195 93.9238 13.625C93.7363 13.7266 93.5176 13.8203 93.2676 13.9063C93.0215 13.9922 92.7422 14.0625 92.4297 14.1172C92.1172 14.1758 91.7734 14.2051 91.3984 14.2051C91.1055 14.2051 90.8125 14.1816 90.5195 14.1348C90.2266 14.0879 89.9453 14.0137 89.6758 13.9121C89.4102 13.8105 89.1621 13.6777 88.9316 13.5137C88.7012 13.3496 88.5 13.1484 88.3281 12.9102C88.1602 12.6719 88.0273 12.3965 87.9297 12.084C87.832 11.7676 87.7832 11.4063 87.7832 11C87.7832 10.6016 87.832 10.2461 87.9297 9.9336C88.0273 9.61719 88.1602 9.33985 88.3281 9.10156C88.5 8.86328 88.7012 8.66211 88.9316 8.49805C89.1621 8.33008 89.4102 8.19531 89.6758 8.09375C89.9453 7.98828 90.2266 7.91211 90.5195 7.86524C90.8125 7.81836 91.1055 7.79492 91.3984 7.79492C91.8867 7.79492 92.3398 7.84961 92.7578 7.95899C93.1797 8.06836 93.5449 8.24805 93.8535 8.49805C94.1621 8.74805 94.4043 9.07617 94.5801 9.48242C94.7559 9.88867 94.8438 10.3867 94.8438 10.9766V11.3047C94.8438 11.375 94.8262 11.4297 94.791 11.4688C94.7559 11.5078 94.6973 11.5273 94.6152 11.5273H92.1895C92.2207 11.8164 92.2754 12.0586 92.3535 12.2539C92.4355 12.4453 92.5273 12.5996 92.6289 12.7168C92.7344 12.8301 92.8477 12.9102 92.9688 12.957C93.0898 13.0039 93.207 13.0273 93.3203 13.0273ZM94.0117 10.8066C94.0117 10.4941 93.9863 10.2363 93.9355 10.0332C93.8887 9.82617 93.8242 9.66211 93.7422 9.54102C93.6602 9.41602 93.5625 9.32813 93.4492 9.27735C93.3398 9.22656 93.2246 9.20117 93.1035 9.20117C93.0137 9.20117 92.916 9.21875 92.8105 9.25391C92.7051 9.28906 92.6055 9.36328 92.5117 9.47656C92.4219 9.58985 92.3438 9.75196 92.2773 9.96289C92.2148 10.1738 92.1777 10.4551 92.166 10.8066H94.0117Z"/>
<path d="M95.6992 8.81446C95.6992 8.68164 95.7109 8.56446 95.7344 8.46289C95.7578 8.35742 95.8027 8.27149 95.8691 8.20508C95.9355 8.13867 96.0273 8.08789 96.1445 8.05274C96.2617 8.01758 96.4141 8 96.6016 8H99.168C99.3477 8 99.4922 8.01758 99.6016 8.05274C99.7109 8.08789 99.7969 8.14063 99.8594 8.21094C99.9219 8.28125 99.9629 8.36914 99.9824 8.47461C100.006 8.58008 100.018 8.70313 100.018 8.84375V9.27735L101.318 8.01172C101.404 7.92969 101.484 7.88867 101.559 7.88867C101.602 7.88867 101.639 7.89844 101.67 7.91797C101.705 7.9336 101.734 7.95313 101.758 7.97656L102.021 8.25196C102.08 8.31055 102.109 8.375 102.109 8.44531C102.109 8.48828 102.096 8.53321 102.068 8.58008C102.045 8.62305 102.006 8.66602 101.951 8.70899L100.018 10.209V13.1738C100.018 13.3105 100.008 13.4316 99.9883 13.5371C99.9688 13.6387 99.9258 13.7246 99.8594 13.7949C99.793 13.8613 99.6973 13.9121 99.5723 13.9473C99.4473 13.9824 99.2773 14 99.0625 14H96.6016C96.4141 14 96.2617 13.9824 96.1445 13.9473C96.0273 13.9121 95.9355 13.8613 95.8691 13.7949C95.8027 13.7285 95.7578 13.6445 95.7344 13.543C95.7109 13.4414 95.6992 13.3223 95.6992 13.1855V8.81446Z"/>
<path d="M41.4171 4.44634C41.3456 4.34295 41.25 4.25844 41.1387 4.20006C41.0273 4.14168 40.9035 4.11116 40.7778 4.11112H30.1479L29.2503 1.95667C29.1326 1.67296 28.9334 1.43057 28.6778 1.26026C28.4221 1.08994 28.1217 0.999363 27.8146 1.00001H26V2.55556H27.8146L31.5043 11.4106C31.5634 11.5522 31.6631 11.6733 31.7909 11.7584C31.9186 11.8435 32.0687 11.8889 32.2222 11.8889H38.4444C38.7688 11.8889 39.0589 11.6874 39.1732 11.3849L41.5065 5.16267C41.5506 5.04493 41.5655 4.91826 41.55 4.7935C41.5344 4.66874 41.4888 4.54962 41.4171 4.44634ZM37.9054 10.3333H32.741L30.7966 5.66667H39.6554L37.9054 10.3333Z"/>
<path d="M32.6111 15C33.2555 15 33.7778 14.4777 33.7778 13.8333C33.7778 13.189 33.2555 12.6667 32.6111 12.6667C31.9668 12.6667 31.4445 13.189 31.4445 13.8333C31.4445 14.4777 31.9668 15 32.6111 15Z"/>
<path d="M38.0556 15C38.6999 15 39.2222 14.4777 39.2222 13.8333C39.2222 13.189 38.6999 12.6667 38.0556 12.6667C37.4112 12.6667 36.8889 13.189 36.8889 13.8333C36.8889 14.4777 37.4112 15 38.0556 15Z"/>
<path d="M37.4356 0.358907L29.8092 4.10274C29.3691 4.3188 29.1997 4.85944 29.4378 5.28805C29.6594 5.68696 30.1548 5.84219 30.5644 5.6411L38.1908 1.89727C38.6309 1.6812 38.8003 1.14056 38.5622 0.711956C38.3406 0.313044 37.8452 0.157811 37.4356 0.358907Z"/>
</mask>
<path d="M1.91016 7.60156C1.95312 7.17578 2.06836 6.82031 2.25586 6.53516C2.44336 6.25 2.67578 6.02344 2.95312 5.85547C3.23047 5.6836 3.53906 5.5625 3.87891 5.49219C4.21875 5.42188 4.5625 5.38672 4.91016 5.38672C5.19531 5.38672 5.47461 5.39844 5.74805 5.42188C6.02148 5.44531 6.27344 5.47266 6.50391 5.50391C6.73438 5.53516 6.93359 5.56641 7.10156 5.59766C7.26953 5.62891 7.39258 5.65235 7.4707 5.66797C7.51758 5.67969 7.54102 5.70117 7.54102 5.73242C7.54102 5.74024 7.53711 5.76367 7.5293 5.80274L7.44141 6.22461C7.43359 6.25196 7.42188 6.26953 7.40625 6.27735C7.39453 6.28125 7.38281 6.28321 7.37109 6.28321C7.19922 6.28321 7.05078 6.3125 6.92578 6.3711C6.80078 6.42969 6.69727 6.51172 6.61523 6.61719C6.5332 6.72266 6.4707 6.84766 6.42773 6.99219C6.38477 7.13672 6.35547 7.29297 6.33984 7.46094L5.98828 11.7207C5.95703 12.0645 5.86914 12.3887 5.72461 12.6934C5.58008 12.998 5.37891 13.2637 5.12109 13.4902C4.86328 13.7168 4.54688 13.8965 4.17188 14.0293C3.79688 14.1621 3.36719 14.2285 2.88281 14.2285C2.55859 14.2285 2.24609 14.2129 1.94531 14.1816C1.64453 14.1504 1.37109 14.1133 1.125 14.0703C0.878906 14.0273 0.666016 13.9863 0.486328 13.9473C0.310547 13.9043 0.183594 13.873 0.105469 13.8535C0.0585938 13.8418 0.0351562 13.8203 0.0351562 13.7891C0.0351562 13.7852 0.0390625 13.7637 0.046875 13.7246L0.146484 13.2793C0.154297 13.252 0.164062 13.2363 0.175781 13.2324C0.191406 13.2246 0.205078 13.2207 0.216797 13.2207C0.388672 13.2207 0.546875 13.1953 0.691406 13.1445C0.839844 13.0938 0.96875 13.0098 1.07812 12.8926C1.1875 12.7754 1.27734 12.623 1.34766 12.4355C1.42188 12.248 1.47266 12.0176 1.5 11.7441L1.91016 7.60156Z" fill="white"/>
<path d="M7.41211 9.92188C7.33008 9.92188 7.28906 9.87891 7.28906 9.79297V9.32422C7.28906 9.24219 7.33008 9.20117 7.41211 9.20117H8.02148V7.8711C8.02148 7.8125 8.0293 7.75391 8.04492 7.69531C8.06445 7.63672 8.11328 7.5918 8.19141 7.56055L11.4258 6.36524C11.5742 6.31055 11.6973 6.26953 11.7949 6.24219C11.8926 6.21485 11.9785 6.20117 12.0527 6.20117C12.0801 6.20117 12.1094 6.20703 12.1406 6.21875C12.1758 6.22656 12.207 6.24219 12.2344 6.26563C12.2656 6.28906 12.291 6.32227 12.3105 6.36524C12.3301 6.4043 12.3398 6.45313 12.3398 6.51172V9.20117H13.3945C13.4766 9.20117 13.5176 9.24219 13.5176 9.32422V9.79297C13.5176 9.87891 13.4766 9.92188 13.3945 9.92188H12.3398V12.2832C12.3398 12.5605 12.3848 12.7559 12.4746 12.8691C12.5684 12.9824 12.7109 13.0391 12.9023 13.0391C12.9453 13.0391 12.9902 13.0352 13.0371 13.0273C13.084 13.0156 13.127 13.0059 13.166 12.998C13.209 12.9863 13.248 12.9766 13.2832 12.9688C13.3184 12.957 13.3477 12.9512 13.3711 12.9512C13.4141 12.9512 13.4355 12.9766 13.4355 13.0273V13.4785C13.4355 13.5566 13.4199 13.6094 13.3887 13.6367C13.3574 13.6641 13.3301 13.6816 13.3066 13.6895C13.1582 13.752 12.9824 13.8145 12.7793 13.877C12.5801 13.9395 12.3633 13.9941 12.1289 14.041C11.8984 14.0918 11.6543 14.1309 11.3965 14.1582C11.1387 14.1895 10.8809 14.2051 10.623 14.2051C10.252 14.2051 9.90625 14.1855 9.58594 14.1465C9.26953 14.1113 8.99414 14.0273 8.75977 13.8945C8.5293 13.7617 8.34766 13.5645 8.21484 13.3027C8.08594 13.041 8.02148 12.6855 8.02148 12.2363V9.92188H7.41211Z" fill="white"/>
<path d="M17.8008 14.2051C17.5078 14.2051 17.2148 14.1816 16.9219 14.1348C16.6289 14.0879 16.3477 14.0137 16.0781 13.9121C15.8125 13.8105 15.5645 13.6777 15.334 13.5137C15.1035 13.3496 14.9023 13.1484 14.7305 12.9102C14.5625 12.6719 14.4297 12.3965 14.332 12.084C14.2344 11.7676 14.1855 11.4063 14.1855 11C14.1855 10.6016 14.2344 10.2461 14.332 9.9336C14.4297 9.61719 14.5625 9.33985 14.7305 9.10156C14.9023 8.86328 15.1035 8.66211 15.334 8.49805C15.5645 8.33008 15.8125 8.19531 16.0781 8.09375C16.3477 7.98828 16.6289 7.91211 16.9219 7.86524C17.2148 7.81836 17.5078 7.79492 17.8008 7.79492C18.0703 7.79492 18.3457 7.8125 18.627 7.84766C18.9121 7.87891 19.1875 7.93946 19.4531 8.0293C19.7227 8.11524 19.9746 8.23438 20.209 8.38672C20.4473 8.53516 20.6543 8.72656 20.8301 8.96094C21.0098 9.19531 21.1504 9.47656 21.252 9.80469C21.3574 10.1289 21.4102 10.5117 21.4102 10.9531C21.4102 11.4063 21.3594 11.8027 21.2578 12.1426C21.1562 12.4785 21.0156 12.7676 20.8359 13.0098C20.6602 13.248 20.4551 13.4453 20.2207 13.6016C19.9863 13.7578 19.7344 13.8809 19.4648 13.9707C19.1992 14.0566 18.9238 14.1172 18.6387 14.1523C18.3535 14.1875 18.0742 14.2051 17.8008 14.2051ZM19.5996 12.7988C19.7207 12.7988 19.8398 12.7734 19.957 12.7227C20.0781 12.668 20.1836 12.5723 20.2734 12.4355C20.3672 12.2988 20.4414 12.1113 20.4961 11.873C20.5547 11.6309 20.584 11.3242 20.584 10.9531C20.584 10.6016 20.5547 10.3125 20.4961 10.0859C20.4414 9.85938 20.3672 9.68164 20.2734 9.55274C20.1797 9.41992 20.0742 9.32813 19.957 9.27735C19.8398 9.22656 19.7207 9.20117 19.5996 9.20117C19.5059 9.20117 19.4004 9.22071 19.2832 9.25977C19.1699 9.29883 19.0625 9.38281 18.9609 9.51172C18.8633 9.63672 18.7812 9.81836 18.7148 10.0566C18.6484 10.291 18.6152 10.6055 18.6152 11C18.6152 11.3945 18.6426 11.7109 18.6973 11.9492C18.752 12.1875 18.8242 12.3691 18.9141 12.4941C19.0039 12.6191 19.1074 12.7012 19.2246 12.7402C19.3457 12.7793 19.4707 12.7988 19.5996 12.7988Z" fill="white"/>
<path d="M26.2969 11.0352C26.2969 11.4297 26.3379 11.7578 26.4199 12.0195C26.5059 12.2813 26.6133 12.4902 26.7422 12.6465C26.8711 12.7988 27.0098 12.9063 27.1582 12.9688C27.3066 13.0313 27.4453 13.0625 27.5742 13.0625C27.6719 13.0625 27.7617 13.0508 27.8438 13.0273C27.9258 13 27.998 12.9707 28.0605 12.9395C28.123 12.9043 28.1758 12.875 28.2188 12.8516C28.2617 12.8242 28.2949 12.8105 28.3184 12.8105C28.3535 12.8105 28.377 12.8164 28.3887 12.8281C28.4043 12.8398 28.4219 12.8613 28.4414 12.8926L28.6465 13.209C28.666 13.2402 28.6758 13.2676 28.6758 13.291C28.6758 13.3184 28.668 13.3398 28.6523 13.3555C28.6367 13.3711 28.6211 13.3848 28.6055 13.3965C28.4766 13.4863 28.3184 13.582 28.1309 13.6836C27.9434 13.7813 27.7246 13.8711 27.4746 13.9531C27.2285 14.0352 26.9531 14.1035 26.6484 14.1582C26.3438 14.2129 26.0117 14.2402 25.6523 14.2402C25.3594 14.2402 25.0664 14.2168 24.7734 14.1699C24.4805 14.123 24.1992 14.0469 23.9297 13.9414C23.6641 13.8359 23.416 13.7012 23.1855 13.5371C22.9551 13.3691 22.7539 13.168 22.582 12.9336C22.4141 12.6953 22.2812 12.4199 22.1836 12.1074C22.0859 11.791 22.0371 11.4336 22.0371 11.0352C22.0371 10.6367 22.0859 10.2813 22.1836 9.96875C22.2812 9.65235 22.4141 9.37696 22.582 9.14258C22.7539 8.9043 22.9551 8.70313 23.1855 8.53906C23.416 8.3711 23.6641 8.23438 23.9297 8.12891C24.1992 8.02344 24.4805 7.94727 24.7734 7.90039C25.0664 7.85352 25.3594 7.83008 25.6523 7.83008C25.9727 7.83008 26.2812 7.85547 26.5781 7.90625C26.875 7.95313 27.1484 8.01758 27.3984 8.09961C27.6523 8.17774 27.8789 8.26563 28.0781 8.36328C28.2812 8.45703 28.4453 8.55078 28.5703 8.64453C28.5859 8.65625 28.6016 8.66992 28.6172 8.68555C28.6328 8.70117 28.6406 8.72266 28.6406 8.75C28.6406 8.77735 28.6309 8.80469 28.6113 8.83203L28.4062 9.14844C28.3867 9.17969 28.3691 9.20117 28.3535 9.21289C28.3418 9.22461 28.3184 9.23047 28.2832 9.23047C28.2598 9.23047 28.2285 9.21875 28.1895 9.19531C28.1504 9.17188 28.1016 9.14649 28.043 9.11914C27.9844 9.08789 27.916 9.06055 27.8379 9.03711C27.7598 9.00977 27.6719 8.9961 27.5742 8.9961C27.4453 8.9961 27.3066 9.0293 27.1582 9.09571C27.0098 9.15821 26.8711 9.26758 26.7422 9.42383C26.6133 9.58008 26.5059 9.78906 26.4199 10.0508C26.3379 10.3125 26.2969 10.6406 26.2969 11.0352Z" fill="white"/>
<path d="M52.1055 10.291L50.7285 12.8281C50.6699 12.9375 50.5996 13.0293 50.5176 13.1035C50.4355 13.1738 50.3223 13.209 50.1777 13.209C50.0449 13.209 49.9336 13.1719 49.8438 13.0977C49.7578 13.0234 49.6855 12.9355 49.627 12.834L48.1738 10.3379C48.1973 10.8652 48.2188 11.3516 48.2383 11.7969C48.2461 11.9883 48.2539 12.1797 48.2617 12.3711C48.2695 12.5625 48.2773 12.7402 48.2852 12.9043C48.293 13.0684 48.2988 13.2148 48.3027 13.3438C48.3105 13.4688 48.3164 13.5605 48.3203 13.6191C48.3242 13.6777 48.3223 13.7305 48.3145 13.7773C48.3105 13.8242 48.2969 13.8652 48.2734 13.9004C48.25 13.9316 48.2168 13.957 48.1738 13.9766C48.1309 13.9922 48.0723 14 47.998 14H47.3535C47.2832 14 47.2168 13.9785 47.1543 13.9355C47.0957 13.8887 47.0664 13.7988 47.0664 13.666V6.21289C47.0664 6.13867 47.0762 6.06446 47.0957 5.99024C47.1191 5.91602 47.1562 5.84961 47.207 5.79102C47.2617 5.72852 47.332 5.67969 47.418 5.64453C47.5039 5.60547 47.6094 5.58594 47.7344 5.58594H49.6211C49.7734 5.58594 49.9043 5.61328 50.0137 5.66797C50.123 5.71875 50.2168 5.80469 50.2949 5.92578L51.8711 8.42774L52.9258 6.40625C52.9883 6.28516 53.0488 6.17578 53.1074 6.07813C53.166 5.97656 53.2344 5.89063 53.3125 5.82031C53.3945 5.7461 53.4941 5.68946 53.6113 5.65039C53.7324 5.60742 53.8867 5.58594 54.0742 5.58594H55.6328C55.7812 5.58594 55.9082 5.60547 56.0137 5.64453C56.123 5.6836 56.2109 5.73633 56.2773 5.80274C56.3477 5.86914 56.3984 5.94727 56.4297 6.03711C56.4609 6.12696 56.4766 6.22461 56.4766 6.33008V13.1855C56.4766 13.3066 56.4668 13.418 56.4473 13.5195C56.4277 13.6172 56.3867 13.7031 56.3242 13.7773C56.2656 13.8477 56.1797 13.9023 56.0664 13.9414C55.957 13.9805 55.8125 14 55.6328 14H52.9258C52.7656 14 52.6328 13.9824 52.5273 13.9473C52.4219 13.9121 52.3379 13.8613 52.2754 13.7949C52.2129 13.7285 52.168 13.6445 52.1406 13.543C52.1172 13.4414 52.1055 13.3223 52.1055 13.1855V10.291Z" fill="white"/>
<path d="M60.0039 14C59.793 14 59.5801 13.9863 59.3652 13.959C59.1543 13.9316 58.9512 13.8887 58.7559 13.8301C58.5645 13.7676 58.3848 13.6875 58.2168 13.5898C58.0488 13.4922 57.9023 13.3711 57.7773 13.2266C57.6562 13.082 57.5605 12.9121 57.4902 12.7168C57.4199 12.5215 57.3848 12.2969 57.3848 12.043C57.3848 11.7031 57.4492 11.4121 57.5781 11.1699C57.707 10.9277 57.8789 10.7266 58.0938 10.5664C58.3125 10.4063 58.5625 10.2832 58.8438 10.1973C59.125 10.1113 59.416 10.0566 59.7168 10.0332V9.62891C59.7168 9.47656 59.6973 9.35547 59.6582 9.26563C59.6191 9.17578 59.5684 9.10938 59.5059 9.06641C59.4473 9.01953 59.3809 8.99024 59.3066 8.97852C59.2363 8.96289 59.168 8.95508 59.1016 8.95508C59.0234 8.95508 58.9395 8.9668 58.8496 8.99024C58.7637 9.01367 58.6797 9.04297 58.5977 9.07813C58.5156 9.10938 58.4375 9.14453 58.3633 9.1836C58.2891 9.22266 58.2266 9.25781 58.1758 9.28906C58.1523 9.30469 58.1309 9.31836 58.1113 9.33008C58.0918 9.3418 58.0723 9.34766 58.0527 9.34766C58.0176 9.34766 57.9844 9.32227 57.9531 9.27149L57.7539 8.95508C57.7344 8.92774 57.7246 8.89844 57.7246 8.86719C57.7246 8.83594 57.7363 8.8086 57.7598 8.78516C57.7871 8.76172 57.8125 8.74219 57.8359 8.72656C57.9648 8.63672 58.1289 8.54492 58.3281 8.45117C58.5273 8.35742 58.75 8.27344 58.9961 8.19922C59.2461 8.125 59.5156 8.06446 59.8047 8.01758C60.0938 7.97071 60.3926 7.94727 60.7012 7.94727C60.9941 7.94727 61.2793 7.95703 61.5566 7.97656C61.8379 7.9961 62.1016 8.03906 62.3477 8.10547C62.5977 8.16797 62.8242 8.25977 63.0273 8.38086C63.2344 8.49805 63.4121 8.6543 63.5605 8.84961C63.7129 9.04492 63.8301 9.28516 63.9121 9.57031C63.9941 9.85547 64.0352 10.1973 64.0352 10.5957V13.209C64.0352 13.3379 64.0234 13.4531 64 13.5547C63.9766 13.6523 63.9316 13.7344 63.8652 13.8008C63.7988 13.8672 63.707 13.918 63.5898 13.9531C63.4727 13.9844 63.3203 14 63.1328 14H60.0039ZM59.7168 10.7773C59.4355 10.7773 59.1992 10.8125 59.0078 10.8828C58.8164 10.9531 58.6621 11.0469 58.5449 11.1641C58.4277 11.2813 58.3438 11.418 58.293 11.5742C58.2422 11.7266 58.2168 11.8848 58.2168 12.0488C58.2168 12.2129 58.2422 12.3691 58.293 12.5176C58.3438 12.6621 58.4277 12.7891 58.5449 12.8984C58.6621 13.0078 58.8164 13.0938 59.0078 13.1563C59.1992 13.2188 59.4355 13.25 59.7168 13.25V10.7773Z" fill="white"/>
<path d="M65.1133 8.81446C65.1133 8.68164 65.125 8.56446 65.1484 8.46289C65.1719 8.35742 65.2168 8.27149 65.2832 8.20508C65.3496 8.13867 65.4414 8.08789 65.5586 8.05274C65.6758 8.01758 65.8281 8 66.0156 8H68.4121C68.5879 8 68.7383 8.01758 68.8633 8.05274C68.9922 8.08789 69.084 8.14844 69.1387 8.23438C69.1895 8.19922 69.25 8.16211 69.3203 8.12305C69.3945 8.08008 69.4746 8.04102 69.5605 8.00586C69.6465 7.97071 69.7383 7.94141 69.8359 7.91797C69.9336 7.89453 70.0352 7.88281 70.1406 7.88281C70.5156 7.88281 70.8066 8.01172 71.0137 8.26953C71.2246 8.52735 71.3301 8.90625 71.3301 9.40625V13.7246C71.3301 13.791 71.3203 13.8438 71.3008 13.8828C71.2852 13.918 71.2637 13.9453 71.2363 13.9648C71.2129 13.9805 71.1836 13.9902 71.1484 13.9941C71.1133 13.998 71.0781 14 71.043 14H70.668C70.5664 14 70.5 13.9707 70.4688 13.9121C70.4414 13.8535 70.4277 13.791 70.4277 13.7246V9.34766C70.4277 9.125 70.3867 8.95508 70.3047 8.83789C70.2266 8.72071 70.0996 8.66211 69.9238 8.66211C69.834 8.66211 69.7422 8.6875 69.6484 8.73828C69.5586 8.78516 69.4863 8.83594 69.4316 8.89063V13.1797C69.4316 13.3164 69.4199 13.4355 69.3965 13.5371C69.373 13.6387 69.3281 13.7246 69.2617 13.7949C69.1953 13.8613 69.1035 13.9121 68.9863 13.9473C68.8691 13.9824 68.7168 14 68.5293 14H66.0156C65.8281 14 65.6758 13.9824 65.5586 13.9473C65.4414 13.9121 65.3496 13.8613 65.2832 13.7949C65.2168 13.7285 65.1719 13.6445 65.1484 13.543C65.125 13.4414 65.1133 13.3223 65.1133 13.1855V8.81446Z" fill="white"/>
<path d="M74.8633 14C74.6523 14 74.4395 13.9863 74.2246 13.959C74.0137 13.9316 73.8105 13.8887 73.6152 13.8301C73.4238 13.7676 73.2441 13.6875 73.0762 13.5898C72.9082 13.4922 72.7617 13.3711 72.6367 13.2266C72.5156 13.082 72.4199 12.9121 72.3496 12.7168C72.2793 12.5215 72.2441 12.2969 72.2441 12.043C72.2441 11.7031 72.3086 11.4121 72.4375 11.1699C72.5664 10.9277 72.7383 10.7266 72.9531 10.5664C73.1719 10.4063 73.4219 10.2832 73.7031 10.1973C73.9844 10.1113 74.2754 10.0566 74.5762 10.0332V9.62891C74.5762 9.47656 74.5566 9.35547 74.5176 9.26563C74.4785 9.17578 74.4277 9.10938 74.3652 9.06641C74.3066 9.01953 74.2402 8.99024 74.166 8.97852C74.0957 8.96289 74.0273 8.95508 73.9609 8.95508C73.8828 8.95508 73.7988 8.9668 73.709 8.99024C73.623 9.01367 73.5391 9.04297 73.457 9.07813C73.375 9.10938 73.2969 9.14453 73.2227 9.1836C73.1484 9.22266 73.0859 9.25781 73.0352 9.28906C73.0117 9.30469 72.9902 9.31836 72.9707 9.33008C72.9512 9.3418 72.9316 9.34766 72.9121 9.34766C72.877 9.34766 72.8438 9.32227 72.8125 9.27149L72.6133 8.95508C72.5938 8.92774 72.584 8.89844 72.584 8.86719C72.584 8.83594 72.5957 8.8086 72.6191 8.78516C72.6465 8.76172 72.6719 8.74219 72.6953 8.72656C72.8242 8.63672 72.9883 8.54492 73.1875 8.45117C73.3867 8.35742 73.6094 8.27344 73.8555 8.19922C74.1055 8.125 74.375 8.06446 74.6641 8.01758C74.9531 7.97071 75.252 7.94727 75.5605 7.94727C75.8535 7.94727 76.1387 7.95703 76.416 7.97656C76.6973 7.9961 76.9609 8.03906 77.207 8.10547C77.457 8.16797 77.6836 8.25977 77.8867 8.38086C78.0938 8.49805 78.2715 8.6543 78.4199 8.84961C78.5723 9.04492 78.6895 9.28516 78.7715 9.57031C78.8535 9.85547 78.8945 10.1973 78.8945 10.5957V13.209C78.8945 13.3379 78.8828 13.4531 78.8594 13.5547C78.8359 13.6523 78.791 13.7344 78.7246 13.8008C78.6582 13.8672 78.5664 13.918 78.4492 13.9531C78.332 13.9844 78.1797 14 77.9922 14H74.8633ZM74.5762 10.7773C74.2949 10.7773 74.0586 10.8125 73.8672 10.8828C73.6758 10.9531 73.5215 11.0469 73.4043 11.1641C73.2871 11.2813 73.2031 11.418 73.1523 11.5742C73.1016 11.7266 73.0762 11.8848 73.0762 12.0488C73.0762 12.2129 73.1016 12.3691 73.1523 12.5176C73.2031 12.6621 73.2871 12.7891 73.4043 12.8984C73.5215 13.0078 73.6758 13.0938 73.8672 13.1563C74.0586 13.2188 74.2949 13.25 74.5762 13.25V10.7773Z" fill="white"/>
<path d="M83.3594 13.4141C83.0625 13.4141 82.7676 13.3945 82.4746 13.3555C82.1816 13.3125 81.9004 13.2461 81.6309 13.1563C81.627 13.1758 81.625 13.1953 81.625 13.2148C81.625 13.2305 81.625 13.248 81.625 13.2676C81.625 13.3848 81.6445 13.4941 81.6836 13.5957C81.7227 13.6934 81.7832 13.7793 81.8652 13.8535C81.9512 13.9277 82.0625 13.9863 82.1992 14.0293C82.3359 14.0723 82.502 14.0938 82.6973 14.0938C82.9121 14.0938 83.1113 14.0801 83.2949 14.0527C83.4785 14.0293 83.6582 14.0039 83.834 13.9766C84.0098 13.9453 84.1855 13.918 84.3613 13.8945C84.541 13.8672 84.7305 13.8535 84.9297 13.8535C85.1211 13.8535 85.3086 13.8887 85.4922 13.959C85.6758 14.0254 85.8379 14.123 85.9785 14.252C86.123 14.3848 86.2383 14.5469 86.3242 14.7383C86.4102 14.9297 86.4531 15.1484 86.4531 15.3945C86.4531 15.6133 86.4316 15.8047 86.3887 15.9688C86.3496 16.1328 86.3086 16.2891 86.2656 16.4375C86.2578 16.457 86.2422 16.4805 86.2188 16.5078C86.1992 16.5352 86.1602 16.5488 86.1016 16.5488H85.668C85.6133 16.5488 85.5781 16.5352 85.5625 16.5078C85.5469 16.4844 85.5352 16.4648 85.5273 16.4492C85.4531 16.2656 85.166 16.1738 84.666 16.1738C84.4512 16.1738 84.2383 16.1855 84.0273 16.209C83.8164 16.2363 83.6016 16.2637 83.3828 16.291C83.1641 16.3223 82.9355 16.3496 82.6973 16.373C82.4629 16.4004 82.2148 16.4141 81.9531 16.4141C81.5898 16.4141 81.2812 16.3535 81.0273 16.2324C80.7773 16.1113 80.5742 15.957 80.418 15.7695C80.2617 15.5859 80.1484 15.3828 80.0781 15.1602C80.0078 14.9375 79.9727 14.7266 79.9727 14.5273C79.9727 14.3125 79.9961 14.1172 80.043 13.9414C80.0938 13.7617 80.1582 13.5996 80.2363 13.4551C80.3145 13.3105 80.4043 13.1816 80.5059 13.0684C80.6074 12.9512 80.709 12.8457 80.8105 12.752C80.4902 12.5332 80.2324 12.248 80.0371 11.8965C79.8418 11.5449 79.7441 11.1133 79.7441 10.6016C79.7441 10.2539 79.793 9.94336 79.8906 9.66992C79.9883 9.39258 80.1211 9.15039 80.2891 8.94336C80.4609 8.73242 80.6621 8.55469 80.8926 8.41016C81.123 8.26563 81.3711 8.14844 81.6367 8.0586C81.9062 7.96485 82.1875 7.89844 82.4805 7.85938C82.7734 7.81641 83.0664 7.79492 83.3594 7.79492C83.6211 7.79492 83.8887 7.8086 84.1621 7.83594C84.4355 7.86328 84.7012 7.91406 84.959 7.98828C85.2207 8.0586 85.4668 8.1543 85.6973 8.27539C85.9316 8.39649 86.1387 8.55078 86.3184 8.73828L86.957 8.08789C87 8.04492 87.041 8.01367 87.0801 7.99414C87.123 7.97461 87.1621 7.96485 87.1973 7.96485C87.2598 7.96485 87.3164 7.99024 87.3672 8.04102L87.6543 8.34571C87.7012 8.40039 87.7246 8.45703 87.7246 8.51563C87.7246 8.60156 87.6758 8.67969 87.5781 8.75L86.7285 9.34766C86.8066 9.51563 86.8652 9.69922 86.9043 9.89844C86.9473 10.0977 86.9688 10.3164 86.9688 10.5547C86.9688 10.9531 86.918 11.3008 86.8164 11.5977C86.7148 11.8945 86.5742 12.1484 86.3945 12.3594C86.2188 12.5703 86.0137 12.7441 85.7793 12.8809C85.5449 13.0176 85.293 13.125 85.0234 13.2031C84.7578 13.2813 84.4824 13.3359 84.1973 13.3672C83.9121 13.3984 83.6328 13.4141 83.3594 13.4141ZM85.3164 9.95703C85.2969 9.9375 85.2871 9.90821 85.2871 9.86914C85.2871 9.82227 85.3047 9.78125 85.3398 9.7461L85.7148 9.35938C85.6367 9.30078 85.5508 9.25977 85.457 9.23633C85.3672 9.21289 85.2754 9.20117 85.1816 9.20117C85.0879 9.20117 84.9824 9.2168 84.8652 9.24805C84.752 9.27539 84.6426 9.33789 84.5371 9.43555C84.4355 9.53321 84.3496 9.67578 84.2793 9.86328C84.209 10.0469 84.1738 10.293 84.1738 10.6016C84.1738 10.9102 84.2012 11.1582 84.2559 11.3457C84.3145 11.5293 84.3906 11.6699 84.4844 11.7676C84.5781 11.8652 84.6855 11.9297 84.8066 11.9609C84.9277 11.9922 85.0527 12.0078 85.1816 12.0078C85.3027 12.0078 85.4219 11.9883 85.5391 11.9492C85.6562 11.9063 85.7578 11.832 85.8438 11.7266C85.9336 11.6172 86.0059 11.4707 86.0605 11.2871C86.1152 11.0996 86.1426 10.8594 86.1426 10.5664C86.1426 10.2734 86.1094 10.0313 86.043 9.83985L85.6504 10.1152C85.6191 10.1348 85.5879 10.1445 85.5566 10.1445C85.5059 10.1445 85.4648 10.125 85.4336 10.0859L85.3164 9.95703Z" fill="white"/>
<path d="M93.3203 13.0273C93.4258 13.0273 93.5215 13.0137 93.6074 12.9863C93.6934 12.9551 93.7695 12.9219 93.8359 12.8867C93.9062 12.8516 93.9629 12.8203 94.0059 12.793C94.0527 12.7617 94.0879 12.7461 94.1113 12.7461C94.1465 12.7461 94.1699 12.752 94.1816 12.7637C94.1973 12.7754 94.2148 12.7969 94.2344 12.8281L94.4395 13.1445C94.459 13.1758 94.4688 13.2031 94.4688 13.2266C94.4688 13.2539 94.4609 13.2754 94.4453 13.291C94.4297 13.3066 94.4141 13.3203 94.3984 13.332C94.2695 13.4219 94.1113 13.5195 93.9238 13.625C93.7363 13.7266 93.5176 13.8203 93.2676 13.9063C93.0215 13.9922 92.7422 14.0625 92.4297 14.1172C92.1172 14.1758 91.7734 14.2051 91.3984 14.2051C91.1055 14.2051 90.8125 14.1816 90.5195 14.1348C90.2266 14.0879 89.9453 14.0137 89.6758 13.9121C89.4102 13.8105 89.1621 13.6777 88.9316 13.5137C88.7012 13.3496 88.5 13.1484 88.3281 12.9102C88.1602 12.6719 88.0273 12.3965 87.9297 12.084C87.832 11.7676 87.7832 11.4063 87.7832 11C87.7832 10.6016 87.832 10.2461 87.9297 9.9336C88.0273 9.61719 88.1602 9.33985 88.3281 9.10156C88.5 8.86328 88.7012 8.66211 88.9316 8.49805C89.1621 8.33008 89.4102 8.19531 89.6758 8.09375C89.9453 7.98828 90.2266 7.91211 90.5195 7.86524C90.8125 7.81836 91.1055 7.79492 91.3984 7.79492C91.8867 7.79492 92.3398 7.84961 92.7578 7.95899C93.1797 8.06836 93.5449 8.24805 93.8535 8.49805C94.1621 8.74805 94.4043 9.07617 94.5801 9.48242C94.7559 9.88867 94.8438 10.3867 94.8438 10.9766V11.3047C94.8438 11.375 94.8262 11.4297 94.791 11.4688C94.7559 11.5078 94.6973 11.5273 94.6152 11.5273H92.1895C92.2207 11.8164 92.2754 12.0586 92.3535 12.2539C92.4355 12.4453 92.5273 12.5996 92.6289 12.7168C92.7344 12.8301 92.8477 12.9102 92.9688 12.957C93.0898 13.0039 93.207 13.0273 93.3203 13.0273ZM94.0117 10.8066C94.0117 10.4941 93.9863 10.2363 93.9355 10.0332C93.8887 9.82617 93.8242 9.66211 93.7422 9.54102C93.6602 9.41602 93.5625 9.32813 93.4492 9.27735C93.3398 9.22656 93.2246 9.20117 93.1035 9.20117C93.0137 9.20117 92.916 9.21875 92.8105 9.25391C92.7051 9.28906 92.6055 9.36328 92.5117 9.47656C92.4219 9.58985 92.3438 9.75196 92.2773 9.96289C92.2148 10.1738 92.1777 10.4551 92.166 10.8066H94.0117Z" fill="white"/>
<path d="M95.6992 8.81446C95.6992 8.68164 95.7109 8.56446 95.7344 8.46289C95.7578 8.35742 95.8027 8.27149 95.8691 8.20508C95.9355 8.13867 96.0273 8.08789 96.1445 8.05274C96.2617 8.01758 96.4141 8 96.6016 8H99.168C99.3477 8 99.4922 8.01758 99.6016 8.05274C99.7109 8.08789 99.7969 8.14063 99.8594 8.21094C99.9219 8.28125 99.9629 8.36914 99.9824 8.47461C100.006 8.58008 100.018 8.70313 100.018 8.84375V9.27735L101.318 8.01172C101.404 7.92969 101.484 7.88867 101.559 7.88867C101.602 7.88867 101.639 7.89844 101.67 7.91797C101.705 7.9336 101.734 7.95313 101.758 7.97656L102.021 8.25196C102.08 8.31055 102.109 8.375 102.109 8.44531C102.109 8.48828 102.096 8.53321 102.068 8.58008C102.045 8.62305 102.006 8.66602 101.951 8.70899L100.018 10.209V13.1738C100.018 13.3105 100.008 13.4316 99.9883 13.5371C99.9688 13.6387 99.9258 13.7246 99.8594 13.7949C99.793 13.8613 99.6973 13.9121 99.5723 13.9473C99.4473 13.9824 99.2773 14 99.0625 14H96.6016C96.4141 14 96.2617 13.9824 96.1445 13.9473C96.0273 13.9121 95.9355 13.8613 95.8691 13.7949C95.8027 13.7285 95.7578 13.6445 95.7344 13.543C95.7109 13.4414 95.6992 13.3223 95.6992 13.1855V8.81446Z" fill="white"/>
<path d="M41.4171 4.44634C41.3456 4.34295 41.25 4.25844 41.1387 4.20006C41.0273 4.14168 40.9035 4.11116 40.7778 4.11112H30.1479L29.2503 1.95667C29.1326 1.67296 28.9334 1.43057 28.6778 1.26026C28.4221 1.08994 28.1217 0.999363 27.8146 1.00001H26V2.55556H27.8146L31.5043 11.4106C31.5634 11.5522 31.6631 11.6733 31.7909 11.7584C31.9186 11.8435 32.0687 11.8889 32.2222 11.8889H38.4444C38.7688 11.8889 39.0589 11.6874 39.1732 11.3849L41.5065 5.16267C41.5506 5.04493 41.5655 4.91826 41.55 4.7935C41.5344 4.66874 41.4888 4.54962 41.4171 4.44634ZM37.9054 10.3333H32.741L30.7966 5.66667H39.6554L37.9054 10.3333Z" fill="white"/>
<path d="M32.6111 15C33.2555 15 33.7778 14.4777 33.7778 13.8333C33.7778 13.189 33.2555 12.6667 32.6111 12.6667C31.9668 12.6667 31.4445 13.189 31.4445 13.8333C31.4445 14.4777 31.9668 15 32.6111 15Z" fill="white"/>
<path d="M38.0556 15C38.6999 15 39.2222 14.4777 39.2222 13.8333C39.2222 13.189 38.6999 12.6667 38.0556 12.6667C37.4112 12.6667 36.8889 13.189 36.8889 13.8333C36.8889 14.4777 37.4112 15 38.0556 15Z" fill="white"/>
<path d="M37.4356 0.358907L29.8092 4.10274C29.3691 4.3188 29.1997 4.85944 29.4378 5.28805C29.6594 5.68696 30.1548 5.84219 30.5644 5.6411L38.1908 1.89727C38.6309 1.6812 38.8003 1.14056 38.5622 0.711956C38.3406 0.313044 37.8452 0.157811 37.4356 0.358907Z" fill="white"/>
<path d="M1.91016 7.60156C1.95312 7.17578 2.06836 6.82031 2.25586 6.53516C2.44336 6.25 2.67578 6.02344 2.95312 5.85547C3.23047 5.6836 3.53906 5.5625 3.87891 5.49219C4.21875 5.42188 4.5625 5.38672 4.91016 5.38672C5.19531 5.38672 5.47461 5.39844 5.74805 5.42188C6.02148 5.44531 6.27344 5.47266 6.50391 5.50391C6.73438 5.53516 6.93359 5.56641 7.10156 5.59766C7.26953 5.62891 7.39258 5.65235 7.4707 5.66797C7.51758 5.67969 7.54102 5.70117 7.54102 5.73242C7.54102 5.74024 7.53711 5.76367 7.5293 5.80274L7.44141 6.22461C7.43359 6.25196 7.42188 6.26953 7.40625 6.27735C7.39453 6.28125 7.38281 6.28321 7.37109 6.28321C7.19922 6.28321 7.05078 6.3125 6.92578 6.3711C6.80078 6.42969 6.69727 6.51172 6.61523 6.61719C6.5332 6.72266 6.4707 6.84766 6.42773 6.99219C6.38477 7.13672 6.35547 7.29297 6.33984 7.46094L5.98828 11.7207C5.95703 12.0645 5.86914 12.3887 5.72461 12.6934C5.58008 12.998 5.37891 13.2637 5.12109 13.4902C4.86328 13.7168 4.54688 13.8965 4.17188 14.0293C3.79688 14.1621 3.36719 14.2285 2.88281 14.2285C2.55859 14.2285 2.24609 14.2129 1.94531 14.1816C1.64453 14.1504 1.37109 14.1133 1.125 14.0703C0.878906 14.0273 0.666016 13.9863 0.486328 13.9473C0.310547 13.9043 0.183594 13.873 0.105469 13.8535C0.0585938 13.8418 0.0351562 13.8203 0.0351562 13.7891C0.0351562 13.7852 0.0390625 13.7637 0.046875 13.7246L0.146484 13.2793C0.154297 13.252 0.164062 13.2363 0.175781 13.2324C0.191406 13.2246 0.205078 13.2207 0.216797 13.2207C0.388672 13.2207 0.546875 13.1953 0.691406 13.1445C0.839844 13.0938 0.96875 13.0098 1.07812 12.8926C1.1875 12.7754 1.27734 12.623 1.34766 12.4355C1.42188 12.248 1.47266 12.0176 1.5 11.7441L1.91016 7.60156Z" stroke="white" stroke-width="2" mask="url(#path-1-inside-1_1_18)"/>
<path d="M7.41211 9.92188C7.33008 9.92188 7.28906 9.87891 7.28906 9.79297V9.32422C7.28906 9.24219 7.33008 9.20117 7.41211 9.20117H8.02148V7.8711C8.02148 7.8125 8.0293 7.75391 8.04492 7.69531C8.06445 7.63672 8.11328 7.5918 8.19141 7.56055L11.4258 6.36524C11.5742 6.31055 11.6973 6.26953 11.7949 6.24219C11.8926 6.21485 11.9785 6.20117 12.0527 6.20117C12.0801 6.20117 12.1094 6.20703 12.1406 6.21875C12.1758 6.22656 12.207 6.24219 12.2344 6.26563C12.2656 6.28906 12.291 6.32227 12.3105 6.36524C12.3301 6.4043 12.3398 6.45313 12.3398 6.51172V9.20117H13.3945C13.4766 9.20117 13.5176 9.24219 13.5176 9.32422V9.79297C13.5176 9.87891 13.4766 9.92188 13.3945 9.92188H12.3398V12.2832C12.3398 12.5605 12.3848 12.7559 12.4746 12.8691C12.5684 12.9824 12.7109 13.0391 12.9023 13.0391C12.9453 13.0391 12.9902 13.0352 13.0371 13.0273C13.084 13.0156 13.127 13.0059 13.166 12.998C13.209 12.9863 13.248 12.9766 13.2832 12.9688C13.3184 12.957 13.3477 12.9512 13.3711 12.9512C13.4141 12.9512 13.4355 12.9766 13.4355 13.0273V13.4785C13.4355 13.5566 13.4199 13.6094 13.3887 13.6367C13.3574 13.6641 13.3301 13.6816 13.3066 13.6895C13.1582 13.752 12.9824 13.8145 12.7793 13.877C12.5801 13.9395 12.3633 13.9941 12.1289 14.041C11.8984 14.0918 11.6543 14.1309 11.3965 14.1582C11.1387 14.1895 10.8809 14.2051 10.623 14.2051C10.252 14.2051 9.90625 14.1855 9.58594 14.1465C9.26953 14.1113 8.99414 14.0273 8.75977 13.8945C8.5293 13.7617 8.34766 13.5645 8.21484 13.3027C8.08594 13.041 8.02148 12.6855 8.02148 12.2363V9.92188H7.41211Z" stroke="white" stroke-width="2" mask="url(#path-1-inside-1_1_18)"/>
<path d="M17.8008 14.2051C17.5078 14.2051 17.2148 14.1816 16.9219 14.1348C16.6289 14.0879 16.3477 14.0137 16.0781 13.9121C15.8125 13.8105 15.5645 13.6777 15.334 13.5137C15.1035 13.3496 14.9023 13.1484 14.7305 12.9102C14.5625 12.6719 14.4297 12.3965 14.332 12.084C14.2344 11.7676 14.1855 11.4063 14.1855 11C14.1855 10.6016 14.2344 10.2461 14.332 9.9336C14.4297 9.61719 14.5625 9.33985 14.7305 9.10156C14.9023 8.86328 15.1035 8.66211 15.334 8.49805C15.5645 8.33008 15.8125 8.19531 16.0781 8.09375C16.3477 7.98828 16.6289 7.91211 16.9219 7.86524C17.2148 7.81836 17.5078 7.79492 17.8008 7.79492C18.0703 7.79492 18.3457 7.8125 18.627 7.84766C18.9121 7.87891 19.1875 7.93946 19.4531 8.0293C19.7227 8.11524 19.9746 8.23438 20.209 8.38672C20.4473 8.53516 20.6543 8.72656 20.8301 8.96094C21.0098 9.19531 21.1504 9.47656 21.252 9.80469C21.3574 10.1289 21.4102 10.5117 21.4102 10.9531C21.4102 11.4063 21.3594 11.8027 21.2578 12.1426C21.1562 12.4785 21.0156 12.7676 20.8359 13.0098C20.6602 13.248 20.4551 13.4453 20.2207 13.6016C19.9863 13.7578 19.7344 13.8809 19.4648 13.9707C19.1992 14.0566 18.9238 14.1172 18.6387 14.1523C18.3535 14.1875 18.0742 14.2051 17.8008 14.2051ZM19.5996 12.7988C19.7207 12.7988 19.8398 12.7734 19.957 12.7227C20.0781 12.668 20.1836 12.5723 20.2734 12.4355C20.3672 12.2988 20.4414 12.1113 20.4961 11.873C20.5547 11.6309 20.584 11.3242 20.584 10.9531C20.584 10.6016 20.5547 10.3125 20.4961 10.0859C20.4414 9.85938 20.3672 9.68164 20.2734 9.55274C20.1797 9.41992 20.0742 9.32813 19.957 9.27735C19.8398 9.22656 19.7207 9.20117 19.5996 9.20117C19.5059 9.20117 19.4004 9.22071 19.2832 9.25977C19.1699 9.29883 19.0625 9.38281 18.9609 9.51172C18.8633 9.63672 18.7812 9.81836 18.7148 10.0566C18.6484 10.291 18.6152 10.6055 18.6152 11C18.6152 11.3945 18.6426 11.7109 18.6973 11.9492C18.752 12.1875 18.8242 12.3691 18.9141 12.4941C19.0039 12.6191 19.1074 12.7012 19.2246 12.7402C19.3457 12.7793 19.4707 12.7988 19.5996 12.7988Z" stroke="white" stroke-width="2" mask="url(#path-1-inside-1_1_18)"/>
<path d="M26.2969 11.0352C26.2969 11.4297 26.3379 11.7578 26.4199 12.0195C26.5059 12.2813 26.6133 12.4902 26.7422 12.6465C26.8711 12.7988 27.0098 12.9063 27.1582 12.9688C27.3066 13.0313 27.4453 13.0625 27.5742 13.0625C27.6719 13.0625 27.7617 13.0508 27.8438 13.0273C27.9258 13 27.998 12.9707 28.0605 12.9395C28.123 12.9043 28.1758 12.875 28.2188 12.8516C28.2617 12.8242 28.2949 12.8105 28.3184 12.8105C28.3535 12.8105 28.377 12.8164 28.3887 12.8281C28.4043 12.8398 28.4219 12.8613 28.4414 12.8926L28.6465 13.209C28.666 13.2402 28.6758 13.2676 28.6758 13.291C28.6758 13.3184 28.668 13.3398 28.6523 13.3555C28.6367 13.3711 28.6211 13.3848 28.6055 13.3965C28.4766 13.4863 28.3184 13.582 28.1309 13.6836C27.9434 13.7813 27.7246 13.8711 27.4746 13.9531C27.2285 14.0352 26.9531 14.1035 26.6484 14.1582C26.3438 14.2129 26.0117 14.2402 25.6523 14.2402C25.3594 14.2402 25.0664 14.2168 24.7734 14.1699C24.4805 14.123 24.1992 14.0469 23.9297 13.9414C23.6641 13.8359 23.416 13.7012 23.1855 13.5371C22.9551 13.3691 22.7539 13.168 22.582 12.9336C22.4141 12.6953 22.2812 12.4199 22.1836 12.1074C22.0859 11.791 22.0371 11.4336 22.0371 11.0352C22.0371 10.6367 22.0859 10.2813 22.1836 9.96875C22.2812 9.65235 22.4141 9.37696 22.582 9.14258C22.7539 8.9043 22.9551 8.70313 23.1855 8.53906C23.416 8.3711 23.6641 8.23438 23.9297 8.12891C24.1992 8.02344 24.4805 7.94727 24.7734 7.90039C25.0664 7.85352 25.3594 7.83008 25.6523 7.83008C25.9727 7.83008 26.2812 7.85547 26.5781 7.90625C26.875 7.95313 27.1484 8.01758 27.3984 8.09961C27.6523 8.17774 27.8789 8.26563 28.0781 8.36328C28.2812 8.45703 28.4453 8.55078 28.5703 8.64453C28.5859 8.65625 28.6016 8.66992 28.6172 8.68555C28.6328 8.70117 28.6406 8.72266 28.6406 8.75C28.6406 8.77735 28.6309 8.80469 28.6113 8.83203L28.4062 9.14844C28.3867 9.17969 28.3691 9.20117 28.3535 9.21289C28.3418 9.22461 28.3184 9.23047 28.2832 9.23047C28.2598 9.23047 28.2285 9.21875 28.1895 9.19531C28.1504 9.17188 28.1016 9.14649 28.043 9.11914C27.9844 9.08789 27.916 9.06055 27.8379 9.03711C27.7598 9.00977 27.6719 8.9961 27.5742 8.9961C27.4453 8.9961 27.3066 9.0293 27.1582 9.09571C27.0098 9.15821 26.8711 9.26758 26.7422 9.42383C26.6133 9.58008 26.5059 9.78906 26.4199 10.0508C26.3379 10.3125 26.2969 10.6406 26.2969 11.0352Z" stroke="white" stroke-width="2" mask="url(#path-1-inside-1_1_18)"/>
<path d="M52.1055 10.291L50.7285 12.8281C50.6699 12.9375 50.5996 13.0293 50.5176 13.1035C50.4355 13.1738 50.3223 13.209 50.1777 13.209C50.0449 13.209 49.9336 13.1719 49.8438 13.0977C49.7578 13.0234 49.6855 12.9355 49.627 12.834L48.1738 10.3379C48.1973 10.8652 48.2188 11.3516 48.2383 11.7969C48.2461 11.9883 48.2539 12.1797 48.2617 12.3711C48.2695 12.5625 48.2773 12.7402 48.2852 12.9043C48.293 13.0684 48.2988 13.2148 48.3027 13.3438C48.3105 13.4688 48.3164 13.5605 48.3203 13.6191C48.3242 13.6777 48.3223 13.7305 48.3145 13.7773C48.3105 13.8242 48.2969 13.8652 48.2734 13.9004C48.25 13.9316 48.2168 13.957 48.1738 13.9766C48.1309 13.9922 48.0723 14 47.998 14H47.3535C47.2832 14 47.2168 13.9785 47.1543 13.9355C47.0957 13.8887 47.0664 13.7988 47.0664 13.666V6.21289C47.0664 6.13867 47.0762 6.06446 47.0957 5.99024C47.1191 5.91602 47.1562 5.84961 47.207 5.79102C47.2617 5.72852 47.332 5.67969 47.418 5.64453C47.5039 5.60547 47.6094 5.58594 47.7344 5.58594H49.6211C49.7734 5.58594 49.9043 5.61328 50.0137 5.66797C50.123 5.71875 50.2168 5.80469 50.2949 5.92578L51.8711 8.42774L52.9258 6.40625C52.9883 6.28516 53.0488 6.17578 53.1074 6.07813C53.166 5.97656 53.2344 5.89063 53.3125 5.82031C53.3945 5.7461 53.4941 5.68946 53.6113 5.65039C53.7324 5.60742 53.8867 5.58594 54.0742 5.58594H55.6328C55.7812 5.58594 55.9082 5.60547 56.0137 5.64453C56.123 5.6836 56.2109 5.73633 56.2773 5.80274C56.3477 5.86914 56.3984 5.94727 56.4297 6.03711C56.4609 6.12696 56.4766 6.22461 56.4766 6.33008V13.1855C56.4766 13.3066 56.4668 13.418 56.4473 13.5195C56.4277 13.6172 56.3867 13.7031 56.3242 13.7773C56.2656 13.8477 56.1797 13.9023 56.0664 13.9414C55.957 13.9805 55.8125 14 55.6328 14H52.9258C52.7656 14 52.6328 13.9824 52.5273 13.9473C52.4219 13.9121 52.3379 13.8613 52.2754 13.7949C52.2129 13.7285 52.168 13.6445 52.1406 13.543C52.1172 13.4414 52.1055 13.3223 52.1055 13.1855V10.291Z" stroke="white" stroke-width="2" mask="url(#path-1-inside-1_1_18)"/>
<path d="M60.0039 14C59.793 14 59.5801 13.9863 59.3652 13.959C59.1543 13.9316 58.9512 13.8887 58.7559 13.8301C58.5645 13.7676 58.3848 13.6875 58.2168 13.5898C58.0488 13.4922 57.9023 13.3711 57.7773 13.2266C57.6562 13.082 57.5605 12.9121 57.4902 12.7168C57.4199 12.5215 57.3848 12.2969 57.3848 12.043C57.3848 11.7031 57.4492 11.4121 57.5781 11.1699C57.707 10.9277 57.8789 10.7266 58.0938 10.5664C58.3125 10.4063 58.5625 10.2832 58.8438 10.1973C59.125 10.1113 59.416 10.0566 59.7168 10.0332V9.62891C59.7168 9.47656 59.6973 9.35547 59.6582 9.26563C59.6191 9.17578 59.5684 9.10938 59.5059 9.06641C59.4473 9.01953 59.3809 8.99024 59.3066 8.97852C59.2363 8.96289 59.168 8.95508 59.1016 8.95508C59.0234 8.95508 58.9395 8.9668 58.8496 8.99024C58.7637 9.01367 58.6797 9.04297 58.5977 9.07813C58.5156 9.10938 58.4375 9.14453 58.3633 9.1836C58.2891 9.22266 58.2266 9.25781 58.1758 9.28906C58.1523 9.30469 58.1309 9.31836 58.1113 9.33008C58.0918 9.3418 58.0723 9.34766 58.0527 9.34766C58.0176 9.34766 57.9844 9.32227 57.9531 9.27149L57.7539 8.95508C57.7344 8.92774 57.7246 8.89844 57.7246 8.86719C57.7246 8.83594 57.7363 8.8086 57.7598 8.78516C57.7871 8.76172 57.8125 8.74219 57.8359 8.72656C57.9648 8.63672 58.1289 8.54492 58.3281 8.45117C58.5273 8.35742 58.75 8.27344 58.9961 8.19922C59.2461 8.125 59.5156 8.06446 59.8047 8.01758C60.0938 7.97071 60.3926 7.94727 60.7012 7.94727C60.9941 7.94727 61.2793 7.95703 61.5566 7.97656C61.8379 7.9961 62.1016 8.03906 62.3477 8.10547C62.5977 8.16797 62.8242 8.25977 63.0273 8.38086C63.2344 8.49805 63.4121 8.6543 63.5605 8.84961C63.7129 9.04492 63.8301 9.28516 63.9121 9.57031C63.9941 9.85547 64.0352 10.1973 64.0352 10.5957V13.209C64.0352 13.3379 64.0234 13.4531 64 13.5547C63.9766 13.6523 63.9316 13.7344 63.8652 13.8008C63.7988 13.8672 63.707 13.918 63.5898 13.9531C63.4727 13.9844 63.3203 14 63.1328 14H60.0039ZM59.7168 10.7773C59.4355 10.7773 59.1992 10.8125 59.0078 10.8828C58.8164 10.9531 58.6621 11.0469 58.5449 11.1641C58.4277 11.2813 58.3438 11.418 58.293 11.5742C58.2422 11.7266 58.2168 11.8848 58.2168 12.0488C58.2168 12.2129 58.2422 12.3691 58.293 12.5176C58.3438 12.6621 58.4277 12.7891 58.5449 12.8984C58.6621 13.0078 58.8164 13.0938 59.0078 13.1563C59.1992 13.2188 59.4355 13.25 59.7168 13.25V10.7773Z" stroke="white" stroke-width="2" mask="url(#path-1-inside-1_1_18)"/>
<path d="M65.1133 8.81446C65.1133 8.68164 65.125 8.56446 65.1484 8.46289C65.1719 8.35742 65.2168 8.27149 65.2832 8.20508C65.3496 8.13867 65.4414 8.08789 65.5586 8.05274C65.6758 8.01758 65.8281 8 66.0156 8H68.4121C68.5879 8 68.7383 8.01758 68.8633 8.05274C68.9922 8.08789 69.084 8.14844 69.1387 8.23438C69.1895 8.19922 69.25 8.16211 69.3203 8.12305C69.3945 8.08008 69.4746 8.04102 69.5605 8.00586C69.6465 7.97071 69.7383 7.94141 69.8359 7.91797C69.9336 7.89453 70.0352 7.88281 70.1406 7.88281C70.5156 7.88281 70.8066 8.01172 71.0137 8.26953C71.2246 8.52735 71.3301 8.90625 71.3301 9.40625V13.7246C71.3301 13.791 71.3203 13.8438 71.3008 13.8828C71.2852 13.918 71.2637 13.9453 71.2363 13.9648C71.2129 13.9805 71.1836 13.9902 71.1484 13.9941C71.1133 13.998 71.0781 14 71.043 14H70.668C70.5664 14 70.5 13.9707 70.4688 13.9121C70.4414 13.8535 70.4277 13.791 70.4277 13.7246V9.34766C70.4277 9.125 70.3867 8.95508 70.3047 8.83789C70.2266 8.72071 70.0996 8.66211 69.9238 8.66211C69.834 8.66211 69.7422 8.6875 69.6484 8.73828C69.5586 8.78516 69.4863 8.83594 69.4316 8.89063V13.1797C69.4316 13.3164 69.4199 13.4355 69.3965 13.5371C69.373 13.6387 69.3281 13.7246 69.2617 13.7949C69.1953 13.8613 69.1035 13.9121 68.9863 13.9473C68.8691 13.9824 68.7168 14 68.5293 14H66.0156C65.8281 14 65.6758 13.9824 65.5586 13.9473C65.4414 13.9121 65.3496 13.8613 65.2832 13.7949C65.2168 13.7285 65.1719 13.6445 65.1484 13.543C65.125 13.4414 65.1133 13.3223 65.1133 13.1855V8.81446Z" stroke="white" stroke-width="2" mask="url(#path-1-inside-1_1_18)"/>
<path d="M74.8633 14C74.6523 14 74.4395 13.9863 74.2246 13.959C74.0137 13.9316 73.8105 13.8887 73.6152 13.8301C73.4238 13.7676 73.2441 13.6875 73.0762 13.5898C72.9082 13.4922 72.7617 13.3711 72.6367 13.2266C72.5156 13.082 72.4199 12.9121 72.3496 12.7168C72.2793 12.5215 72.2441 12.2969 72.2441 12.043C72.2441 11.7031 72.3086 11.4121 72.4375 11.1699C72.5664 10.9277 72.7383 10.7266 72.9531 10.5664C73.1719 10.4063 73.4219 10.2832 73.7031 10.1973C73.9844 10.1113 74.2754 10.0566 74.5762 10.0332V9.62891C74.5762 9.47656 74.5566 9.35547 74.5176 9.26563C74.4785 9.17578 74.4277 9.10938 74.3652 9.06641C74.3066 9.01953 74.2402 8.99024 74.166 8.97852C74.0957 8.96289 74.0273 8.95508 73.9609 8.95508C73.8828 8.95508 73.7988 8.9668 73.709 8.99024C73.623 9.01367 73.5391 9.04297 73.457 9.07813C73.375 9.10938 73.2969 9.14453 73.2227 9.1836C73.1484 9.22266 73.0859 9.25781 73.0352 9.28906C73.0117 9.30469 72.9902 9.31836 72.9707 9.33008C72.9512 9.3418 72.9316 9.34766 72.9121 9.34766C72.877 9.34766 72.8438 9.32227 72.8125 9.27149L72.6133 8.95508C72.5938 8.92774 72.584 8.89844 72.584 8.86719C72.584 8.83594 72.5957 8.8086 72.6191 8.78516C72.6465 8.76172 72.6719 8.74219 72.6953 8.72656C72.8242 8.63672 72.9883 8.54492 73.1875 8.45117C73.3867 8.35742 73.6094 8.27344 73.8555 8.19922C74.1055 8.125 74.375 8.06446 74.6641 8.01758C74.9531 7.97071 75.252 7.94727 75.5605 7.94727C75.8535 7.94727 76.1387 7.95703 76.416 7.97656C76.6973 7.9961 76.9609 8.03906 77.207 8.10547C77.457 8.16797 77.6836 8.25977 77.8867 8.38086C78.0938 8.49805 78.2715 8.6543 78.4199 8.84961C78.5723 9.04492 78.6895 9.28516 78.7715 9.57031C78.8535 9.85547 78.8945 10.1973 78.8945 10.5957V13.209C78.8945 13.3379 78.8828 13.4531 78.8594 13.5547C78.8359 13.6523 78.791 13.7344 78.7246 13.8008C78.6582 13.8672 78.5664 13.918 78.4492 13.9531C78.332 13.9844 78.1797 14 77.9922 14H74.8633ZM74.5762 10.7773C74.2949 10.7773 74.0586 10.8125 73.8672 10.8828C73.6758 10.9531 73.5215 11.0469 73.4043 11.1641C73.2871 11.2813 73.2031 11.418 73.1523 11.5742C73.1016 11.7266 73.0762 11.8848 73.0762 12.0488C73.0762 12.2129 73.1016 12.3691 73.1523 12.5176C73.2031 12.6621 73.2871 12.7891 73.4043 12.8984C73.5215 13.0078 73.6758 13.0938 73.8672 13.1563C74.0586 13.2188 74.2949 13.25 74.5762 13.25V10.7773Z" stroke="white" stroke-width="2" mask="url(#path-1-inside-1_1_18)"/>
<path d="M83.3594 13.4141C83.0625 13.4141 82.7676 13.3945 82.4746 13.3555C82.1816 13.3125 81.9004 13.2461 81.6309 13.1563C81.627 13.1758 81.625 13.1953 81.625 13.2148C81.625 13.2305 81.625 13.248 81.625 13.2676C81.625 13.3848 81.6445 13.4941 81.6836 13.5957C81.7227 13.6934 81.7832 13.7793 81.8652 13.8535C81.9512 13.9277 82.0625 13.9863 82.1992 14.0293C82.3359 14.0723 82.502 14.0938 82.6973 14.0938C82.9121 14.0938 83.1113 14.0801 83.2949 14.0527C83.4785 14.0293 83.6582 14.0039 83.834 13.9766C84.0098 13.9453 84.1855 13.918 84.3613 13.8945C84.541 13.8672 84.7305 13.8535 84.9297 13.8535C85.1211 13.8535 85.3086 13.8887 85.4922 13.959C85.6758 14.0254 85.8379 14.123 85.9785 14.252C86.123 14.3848 86.2383 14.5469 86.3242 14.7383C86.4102 14.9297 86.4531 15.1484 86.4531 15.3945C86.4531 15.6133 86.4316 15.8047 86.3887 15.9688C86.3496 16.1328 86.3086 16.2891 86.2656 16.4375C86.2578 16.457 86.2422 16.4805 86.2188 16.5078C86.1992 16.5352 86.1602 16.5488 86.1016 16.5488H85.668C85.6133 16.5488 85.5781 16.5352 85.5625 16.5078C85.5469 16.4844 85.5352 16.4648 85.5273 16.4492C85.4531 16.2656 85.166 16.1738 84.666 16.1738C84.4512 16.1738 84.2383 16.1855 84.0273 16.209C83.8164 16.2363 83.6016 16.2637 83.3828 16.291C83.1641 16.3223 82.9355 16.3496 82.6973 16.373C82.4629 16.4004 82.2148 16.4141 81.9531 16.4141C81.5898 16.4141 81.2812 16.3535 81.0273 16.2324C80.7773 16.1113 80.5742 15.957 80.418 15.7695C80.2617 15.5859 80.1484 15.3828 80.0781 15.1602C80.0078 14.9375 79.9727 14.7266 79.9727 14.5273C79.9727 14.3125 79.9961 14.1172 80.043 13.9414C80.0938 13.7617 80.1582 13.5996 80.2363 13.4551C80.3145 13.3105 80.4043 13.1816 80.5059 13.0684C80.6074 12.9512 80.709 12.8457 80.8105 12.752C80.4902 12.5332 80.2324 12.248 80.0371 11.8965C79.8418 11.5449 79.7441 11.1133 79.7441 10.6016C79.7441 10.2539 79.793 9.94336 79.8906 9.66992C79.9883 9.39258 80.1211 9.15039 80.2891 8.94336C80.4609 8.73242 80.6621 8.55469 80.8926 8.41016C81.123 8.26563 81.3711 8.14844 81.6367 8.0586C81.9062 7.96485 82.1875 7.89844 82.4805 7.85938C82.7734 7.81641 83.0664 7.79492 83.3594 7.79492C83.6211 7.79492 83.8887 7.8086 84.1621 7.83594C84.4355 7.86328 84.7012 7.91406 84.959 7.98828C85.2207 8.0586 85.4668 8.1543 85.6973 8.27539C85.9316 8.39649 86.1387 8.55078 86.3184 8.73828L86.957 8.08789C87 8.04492 87.041 8.01367 87.0801 7.99414C87.123 7.97461 87.1621 7.96485 87.1973 7.96485C87.2598 7.96485 87.3164 7.99024 87.3672 8.04102L87.6543 8.34571C87.7012 8.40039 87.7246 8.45703 87.7246 8.51563C87.7246 8.60156 87.6758 8.67969 87.5781 8.75L86.7285 9.34766C86.8066 9.51563 86.8652 9.69922 86.9043 9.89844C86.9473 10.0977 86.9688 10.3164 86.9688 10.5547C86.9688 10.9531 86.918 11.3008 86.8164 11.5977C86.7148 11.8945 86.5742 12.1484 86.3945 12.3594C86.2188 12.5703 86.0137 12.7441 85.7793 12.8809C85.5449 13.0176 85.293 13.125 85.0234 13.2031C84.7578 13.2813 84.4824 13.3359 84.1973 13.3672C83.9121 13.3984 83.6328 13.4141 83.3594 13.4141ZM85.3164 9.95703C85.2969 9.9375 85.2871 9.90821 85.2871 9.86914C85.2871 9.82227 85.3047 9.78125 85.3398 9.7461L85.7148 9.35938C85.6367 9.30078 85.5508 9.25977 85.457 9.23633C85.3672 9.21289 85.2754 9.20117 85.1816 9.20117C85.0879 9.20117 84.9824 9.2168 84.8652 9.24805C84.752 9.27539 84.6426 9.33789 84.5371 9.43555C84.4355 9.53321 84.3496 9.67578 84.2793 9.86328C84.209 10.0469 84.1738 10.293 84.1738 10.6016C84.1738 10.9102 84.2012 11.1582 84.2559 11.3457C84.3145 11.5293 84.3906 11.6699 84.4844 11.7676C84.5781 11.8652 84.6855 11.9297 84.8066 11.9609C84.9277 11.9922 85.0527 12.0078 85.1816 12.0078C85.3027 12.0078 85.4219 11.9883 85.5391 11.9492C85.6562 11.9063 85.7578 11.832 85.8438 11.7266C85.9336 11.6172 86.0059 11.4707 86.0605 11.2871C86.1152 11.0996 86.1426 10.8594 86.1426 10.5664C86.1426 10.2734 86.1094 10.0313 86.043 9.83985L85.6504 10.1152C85.6191 10.1348 85.5879 10.1445 85.5566 10.1445C85.5059 10.1445 85.4648 10.125 85.4336 10.0859L85.3164 9.95703Z" stroke="white" stroke-width="2" mask="url(#path-1-inside-1_1_18)"/>
<path d="M93.3203 13.0273C93.4258 13.0273 93.5215 13.0137 93.6074 12.9863C93.6934 12.9551 93.7695 12.9219 93.8359 12.8867C93.9062 12.8516 93.9629 12.8203 94.0059 12.793C94.0527 12.7617 94.0879 12.7461 94.1113 12.7461C94.1465 12.7461 94.1699 12.752 94.1816 12.7637C94.1973 12.7754 94.2148 12.7969 94.2344 12.8281L94.4395 13.1445C94.459 13.1758 94.4688 13.2031 94.4688 13.2266C94.4688 13.2539 94.4609 13.2754 94.4453 13.291C94.4297 13.3066 94.4141 13.3203 94.3984 13.332C94.2695 13.4219 94.1113 13.5195 93.9238 13.625C93.7363 13.7266 93.5176 13.8203 93.2676 13.9063C93.0215 13.9922 92.7422 14.0625 92.4297 14.1172C92.1172 14.1758 91.7734 14.2051 91.3984 14.2051C91.1055 14.2051 90.8125 14.1816 90.5195 14.1348C90.2266 14.0879 89.9453 14.0137 89.6758 13.9121C89.4102 13.8105 89.1621 13.6777 88.9316 13.5137C88.7012 13.3496 88.5 13.1484 88.3281 12.9102C88.1602 12.6719 88.0273 12.3965 87.9297 12.084C87.832 11.7676 87.7832 11.4063 87.7832 11C87.7832 10.6016 87.832 10.2461 87.9297 9.9336C88.0273 9.61719 88.1602 9.33985 88.3281 9.10156C88.5 8.86328 88.7012 8.66211 88.9316 8.49805C89.1621 8.33008 89.4102 8.19531 89.6758 8.09375C89.9453 7.98828 90.2266 7.91211 90.5195 7.86524C90.8125 7.81836 91.1055 7.79492 91.3984 7.79492C91.8867 7.79492 92.3398 7.84961 92.7578 7.95899C93.1797 8.06836 93.5449 8.24805 93.8535 8.49805C94.1621 8.74805 94.4043 9.07617 94.5801 9.48242C94.7559 9.88867 94.8438 10.3867 94.8438 10.9766V11.3047C94.8438 11.375 94.8262 11.4297 94.791 11.4688C94.7559 11.5078 94.6973 11.5273 94.6152 11.5273H92.1895C92.2207 11.8164 92.2754 12.0586 92.3535 12.2539C92.4355 12.4453 92.5273 12.5996 92.6289 12.7168C92.7344 12.8301 92.8477 12.9102 92.9688 12.957C93.0898 13.0039 93.207 13.0273 93.3203 13.0273ZM94.0117 10.8066C94.0117 10.4941 93.9863 10.2363 93.9355 10.0332C93.8887 9.82617 93.8242 9.66211 93.7422 9.54102C93.6602 9.41602 93.5625 9.32813 93.4492 9.27735C93.3398 9.22656 93.2246 9.20117 93.1035 9.20117C93.0137 9.20117 92.916 9.21875 92.8105 9.25391C92.7051 9.28906 92.6055 9.36328 92.5117 9.47656C92.4219 9.58985 92.3438 9.75196 92.2773 9.96289C92.2148 10.1738 92.1777 10.4551 92.166 10.8066H94.0117Z" stroke="white" stroke-width="2" mask="url(#path-1-inside-1_1_18)"/>
<path d="M95.6992 8.81446C95.6992 8.68164 95.7109 8.56446 95.7344 8.46289C95.7578 8.35742 95.8027 8.27149 95.8691 8.20508C95.9355 8.13867 96.0273 8.08789 96.1445 8.05274C96.2617 8.01758 96.4141 8 96.6016 8H99.168C99.3477 8 99.4922 8.01758 99.6016 8.05274C99.7109 8.08789 99.7969 8.14063 99.8594 8.21094C99.9219 8.28125 99.9629 8.36914 99.9824 8.47461C100.006 8.58008 100.018 8.70313 100.018 8.84375V9.27735L101.318 8.01172C101.404 7.92969 101.484 7.88867 101.559 7.88867C101.602 7.88867 101.639 7.89844 101.67 7.91797C101.705 7.9336 101.734 7.95313 101.758 7.97656L102.021 8.25196C102.08 8.31055 102.109 8.375 102.109 8.44531C102.109 8.48828 102.096 8.53321 102.068 8.58008C102.045 8.62305 102.006 8.66602 101.951 8.70899L100.018 10.209V13.1738C100.018 13.3105 100.008 13.4316 99.9883 13.5371C99.9688 13.6387 99.9258 13.7246 99.8594 13.7949C99.793 13.8613 99.6973 13.9121 99.5723 13.9473C99.4473 13.9824 99.2773 14 99.0625 14H96.6016C96.4141 14 96.2617 13.9824 96.1445 13.9473C96.0273 13.9121 95.9355 13.8613 95.8691 13.7949C95.8027 13.7285 95.7578 13.6445 95.7344 13.543C95.7109 13.4414 95.6992 13.3223 95.6992 13.1855V8.81446Z" stroke="white" stroke-width="2" mask="url(#path-1-inside-1_1_18)"/>
<path d="M41.4171 4.44634C41.3456 4.34295 41.25 4.25844 41.1387 4.20006C41.0273 4.14168 40.9035 4.11116 40.7778 4.11112H30.1479L29.2503 1.95667C29.1326 1.67296 28.9334 1.43057 28.6778 1.26026C28.4221 1.08994 28.1217 0.999363 27.8146 1.00001H26V2.55556H27.8146L31.5043 11.4106C31.5634 11.5522 31.6631 11.6733 31.7909 11.7584C31.9186 11.8435 32.0687 11.8889 32.2222 11.8889H38.4444C38.7688 11.8889 39.0589 11.6874 39.1732 11.3849L41.5065 5.16267C41.5506 5.04493 41.5655 4.91826 41.55 4.7935C41.5344 4.66874 41.4888 4.54962 41.4171 4.44634ZM37.9054 10.3333H32.741L30.7966 5.66667H39.6554L37.9054 10.3333Z" stroke="white" stroke-width="2" mask="url(#path-1-inside-1_1_18)"/>
<path d="M32.6111 15C33.2555 15 33.7778 14.4777 33.7778 13.8333C33.7778 13.189 33.2555 12.6667 32.6111 12.6667C31.9668 12.6667 31.4445 13.189 31.4445 13.8333C31.4445 14.4777 31.9668 15 32.6111 15Z" stroke="white" stroke-width="2" mask="url(#path-1-inside-1_1_18)"/>
<path d="M38.0556 15C38.6999 15 39.2222 14.4777 39.2222 13.8333C39.2222 13.189 38.6999 12.6667 38.0556 12.6667C37.4112 12.6667 36.8889 13.189 36.8889 13.8333C36.8889 14.4777 37.4112 15 38.0556 15Z" stroke="white" stroke-width="2" mask="url(#path-1-inside-1_1_18)"/>
<path d="M37.4356 0.358907L29.8092 4.10274C29.3691 4.3188 29.1997 4.85944 29.4378 5.28805C29.6594 5.68696 30.1548 5.84219 30.5644 5.6411L38.1908 1.89727C38.6309 1.6812 38.8003 1.14056 38.5622 0.711956C38.3406 0.313044 37.8452 0.157811 37.4356 0.358907Z" stroke="white" stroke-width="2" mask="url(#path-1-inside-1_1_18)"/>
</svg>
