<svg width="16" height="15" viewBox="0 0 16 15" fill="none" xmlns="http://www.w3.org/2000/svg">
<path d="M15.0064 4.73146L15.0059 4.73084C14.9804 4.69391 14.9463 4.66373 14.9065 4.64288C14.8668 4.62206 14.8226 4.61116 14.7778 4.61112C14.7777 4.61112 14.7777 4.61111 14.7776 4.61111M15.0064 4.73146L14.7778 4.11112L14.7776 4.61111M15.0064 4.73146C15.032 4.76835 15.0483 4.81089 15.0538 4.85545C15.0594 4.90001 15.0541 4.94525 15.0383 4.9873L12.7055 11.2081C12.7054 11.2083 12.7054 11.2085 12.7053 11.2086C12.6641 11.317 12.56 11.3889 12.4444 11.3889H6.22222H6.22218C6.16735 11.3889 6.11375 11.3727 6.06813 11.3423C6.02256 11.3119 5.98698 11.2688 5.96587 11.2182C5.96586 11.2182 5.96584 11.2182 5.96583 11.2182C5.96582 11.2181 5.9658 11.2181 5.96579 11.2181L3.87133 6.19161C4.06708 6.23848 4.27378 6.24215 4.47621 6.19784L6.27946 10.5256L6.40766 10.8333H6.741H11.9054H12.2519L12.3736 10.5089L14.1236 5.84223L14.3769 5.16667H13.6554H6.66549L7.79717 4.61112M15.0064 4.73146L7.79717 4.61112M14.7776 4.61111L7.79717 4.61112M14.7776 4.61111L7.79717 4.61112M3.44878 3.73317C3.27282 3.84684 3.13086 3.99617 3.02749 4.1665L2.27609 2.36324L2.14788 2.05556H1.81456H0.5V1.50001L1.81456 1.50001L1.8156 1.5C2.02373 1.49957 2.2273 1.56095 2.40051 1.67635C2.57371 1.79176 2.70874 1.956 2.78849 2.14825L2.78878 2.14896L3.44878 3.73317ZM3.87488 5.04523C3.79328 4.89835 3.8266 4.71987 3.94309 4.61112H4.14789H5.52792L4.39623 5.16667H4.04655L4.06323 5.20669C3.98577 5.17812 3.91793 5.12271 3.87488 5.04523ZM7.56496 3.61112H5.94532L11.6559 0.807741C11.8265 0.723988 12.0328 0.78864 12.1251 0.954777C12.2243 1.13328 12.1537 1.35845 11.9704 1.44843L7.56496 3.61112ZM7.27779 13.8333C7.27779 14.2015 6.97931 14.5 6.61112 14.5C6.24293 14.5 5.94445 14.2015 5.94445 13.8333C5.94445 13.4651 6.24293 13.1667 6.61112 13.1667C6.97931 13.1667 7.27779 13.4651 7.27779 13.8333ZM12.7222 13.8333C12.7222 14.2015 12.4237 14.5 12.0556 14.5C11.6874 14.5 11.3889 14.2015 11.3889 13.8333C11.3889 13.4651 11.6874 13.1667 12.0556 13.1667C12.4237 13.1667 12.7222 13.4651 12.7222 13.8333Z" fill="white" stroke="white"/>
</svg>
